<?xml version="1.0" encoding="UTF-8" standalone="no"?>
<!-- Created with Inkscape (http://www.inkscape.org/) -->

<svg
   xmlns:dc="http://purl.org/dc/elements/1.1/"
   xmlns:cc="http://creativecommons.org/ns#"
   xmlns:rdf="http://www.w3.org/1999/02/22-rdf-syntax-ns#"
   xmlns:svg="http://www.w3.org/2000/svg"
   xmlns="http://www.w3.org/2000/svg"
   xmlns:xlink="http://www.w3.org/1999/xlink"
   xmlns:sodipodi="http://sodipodi.sourceforge.net/DTD/sodipodi-0.dtd"
   xmlns:inkscape="http://www.inkscape.org/namespaces/inkscape"
   width="308.2728"
   height="739.91547"
   id="svg4993"
   sodipodi:version="0.32"
   inkscape:version="0.91 r13725"
   sodipodi:docname="logo_v6.2.0.svg"
   inkscape:output_extension="org.inkscape.output.svg.inkscape"
   inkscape:export-filename="/Users/brunoboissonnet/Documents/binfoservice/logo/logo_v2.2.png"
   inkscape:export-xdpi="80.800003"
   inkscape:export-ydpi="80.800003"
   version="1.1">
  <defs
     id="defs4995">
    <linearGradient
       inkscape:collect="always"
       id="linearGradient4215">
      <stop
         style="stop-color:#ffffff;stop-opacity:1;"
         offset="0"
         id="stop4217" />
      <stop
         style="stop-color:#ffffff;stop-opacity:0;"
         offset="1"
         id="stop4219" />
    </linearGradient>
    <linearGradient
       id="linearGradient4226">
      <stop
         id="stop4228"
         offset="0"
         style="stop-color:#b0ff00;stop-opacity:1;" />
      <stop
         style="stop-color:#58fe2f;stop-opacity:1;"
         offset="0.14021577"
         id="stop4230" />
      <stop
         style="stop-color:#00fd5f;stop-opacity:1;"
         offset="0.27594545"
         id="stop4232" />
      <stop
         style="stop-color:#00fff7;stop-opacity:1;"
         offset="0.4637017"
         id="stop4234" />
      <stop
         id="stop4236"
         offset="0.65601879"
         style="stop-color:#0ca2fa;stop-opacity:1;" />
      <stop
         style="stop-color:#0662fc;stop-opacity:1;"
         offset="0.8440488"
         id="stop4242" />
      <stop
         id="stop4238"
         offset="1"
         style="stop-color:#1800ff;stop-opacity:1;" />
    </linearGradient>
    <linearGradient
       id="linearGradient4208">
      <stop
         style="stop-color:#b0ff00;stop-opacity:1;"
         offset="0"
         id="stop4210" />
      <stop
         id="stop4222"
         offset="0.1072792"
         style="stop-color:#58fe2f;stop-opacity:1;" />
      <stop
         id="stop4218"
         offset="0.21455841"
         style="stop-color:#00fd5f;stop-opacity:1;" />
      <stop
         id="stop4216"
         offset="0.56017071"
         style="stop-color:#00fff7;stop-opacity:1;" />
      <stop
         style="stop-color:#0ca2fa;stop-opacity:1;"
         offset="0.81951404"
         id="stop4220" />
      <stop
         id="stop4240"
         offset="0.90975702"
         style="stop-color:#0667fc;stop-opacity:1;" />
      <stop
         style="stop-color:#2f00ff;stop-opacity:1;"
         offset="1"
         id="stop4212" />
    </linearGradient>
    <linearGradient
       id="linearGradient4072">
      <stop
         style="stop-color:#e79e1d;stop-opacity:1;"
         offset="0"
         id="stop4074" />
      <stop
         style="stop-color:#ffffff;stop-opacity:1;"
         offset="1"
         id="stop4076" />
    </linearGradient>
    <inkscape:perspective
       sodipodi:type="inkscape:persp3d"
       inkscape:vp_x="0 : 526.18109 : 1"
       inkscape:vp_y="0 : 1000 : 0"
       inkscape:vp_z="744.09448 : 526.18109 : 1"
       inkscape:persp3d-origin="372.04724 : 350.78739 : 1"
       id="perspective5001" />
    <linearGradient
       inkscape:collect="always"
       xlink:href="#linearGradient4215"
       id="linearGradient4357"
       gradientUnits="userSpaceOnUse"
       x1="182.44403"
       y1="606.1123"
       x2="69.076096"
       y2="606.1123" />
    <linearGradient
       inkscape:collect="always"
       xlink:href="#linearGradient4215"
       id="linearGradient4361"
       gradientUnits="userSpaceOnUse"
       x1="182.44403"
       y1="606.1123"
       x2="69.076096"
       y2="606.1123" />
    <linearGradient
       inkscape:collect="always"
       xlink:href="#linearGradient4215"
       id="linearGradient4367"
       gradientUnits="userSpaceOnUse"
       x1="182.44403"
       y1="596.185"
       x2="69.076096"
       y2="596.185" />
    <linearGradient
       inkscape:collect="always"
       xlink:href="#linearGradient4215"
       id="linearGradient4371"
       gradientUnits="userSpaceOnUse"
       x1="182.44403"
       y1="596.185"
       x2="69.076096"
       y2="596.185" />
    <linearGradient
       inkscape:collect="always"
       xlink:href="#linearGradient4215"
       id="linearGradient4377"
       gradientUnits="userSpaceOnUse"
       x1="182.44403"
       y1="586.25763"
       x2="69.076096"
       y2="586.25763" />
    <linearGradient
       inkscape:collect="always"
       xlink:href="#linearGradient4215"
       id="linearGradient4381"
       gradientUnits="userSpaceOnUse"
       x1="182.44403"
       y1="586.25763"
       x2="69.076096"
       y2="586.25763" />
    <linearGradient
       inkscape:collect="always"
       xlink:href="#linearGradient4215"
       id="linearGradient4387"
       gradientUnits="userSpaceOnUse"
       x1="182.44403"
       y1="576.33032"
       x2="69.076096"
       y2="576.33032" />
    <linearGradient
       inkscape:collect="always"
       xlink:href="#linearGradient4215"
       id="linearGradient4391"
       gradientUnits="userSpaceOnUse"
       x1="182.44403"
       y1="576.33032"
       x2="69.076096"
       y2="576.33032" />
    <linearGradient
       inkscape:collect="always"
       xlink:href="#linearGradient4215"
       id="linearGradient4397"
       gradientUnits="userSpaceOnUse"
       x1="182.44403"
       y1="566.40295"
       x2="69.076096"
       y2="566.40295" />
    <linearGradient
       inkscape:collect="always"
       xlink:href="#linearGradient4215"
       id="linearGradient4401"
       gradientUnits="userSpaceOnUse"
       x1="182.44403"
       y1="566.40295"
       x2="69.076096"
       y2="566.40295" />
    <linearGradient
       inkscape:collect="always"
       xlink:href="#linearGradient4215"
       id="linearGradient4407"
       gradientUnits="userSpaceOnUse"
       x1="182.44403"
       y1="556.47565"
       x2="69.076096"
       y2="556.47565" />
    <linearGradient
       inkscape:collect="always"
       xlink:href="#linearGradient4215"
       id="linearGradient4411"
       gradientUnits="userSpaceOnUse"
       x1="182.44403"
       y1="556.47565"
       x2="69.076096"
       y2="556.47565" />
    <linearGradient
       inkscape:collect="always"
       xlink:href="#linearGradient4215"
       id="linearGradient4535"
       gradientUnits="userSpaceOnUse"
       x1="182.44403"
       y1="606.1123"
       x2="69.076096"
       y2="606.1123" />
    <linearGradient
       inkscape:collect="always"
       xlink:href="#linearGradient4215"
       id="linearGradient4537"
       gradientUnits="userSpaceOnUse"
       x1="182.44403"
       y1="606.1123"
       x2="69.076096"
       y2="606.1123" />
    <linearGradient
       inkscape:collect="always"
       xlink:href="#linearGradient4215"
       id="linearGradient4539"
       gradientUnits="userSpaceOnUse"
       x1="182.44403"
       y1="606.1123"
       x2="69.076096"
       y2="606.1123" />
    <linearGradient
       inkscape:collect="always"
       xlink:href="#linearGradient4215"
       id="linearGradient4545"
       gradientUnits="userSpaceOnUse"
       x1="182.44403"
       y1="596.185"
       x2="69.076096"
       y2="596.185" />
    <linearGradient
       inkscape:collect="always"
       xlink:href="#linearGradient4215"
       id="linearGradient4547"
       gradientUnits="userSpaceOnUse"
       x1="182.44403"
       y1="596.185"
       x2="69.076096"
       y2="596.185" />
    <linearGradient
       inkscape:collect="always"
       xlink:href="#linearGradient4215"
       id="linearGradient4549"
       gradientUnits="userSpaceOnUse"
       x1="182.44403"
       y1="596.185"
       x2="69.076096"
       y2="596.185" />
    <linearGradient
       inkscape:collect="always"
       xlink:href="#linearGradient4215"
       id="linearGradient4555"
       gradientUnits="userSpaceOnUse"
       x1="182.44403"
       y1="586.25763"
       x2="69.076096"
       y2="586.25763" />
    <linearGradient
       inkscape:collect="always"
       xlink:href="#linearGradient4215"
       id="linearGradient4557"
       gradientUnits="userSpaceOnUse"
       x1="182.44403"
       y1="586.25763"
       x2="69.076096"
       y2="586.25763" />
    <linearGradient
       inkscape:collect="always"
       xlink:href="#linearGradient4215"
       id="linearGradient4559"
       gradientUnits="userSpaceOnUse"
       x1="182.44403"
       y1="586.25763"
       x2="69.076096"
       y2="586.25763" />
    <linearGradient
       inkscape:collect="always"
       xlink:href="#linearGradient4215"
       id="linearGradient4565"
       gradientUnits="userSpaceOnUse"
       x1="182.44403"
       y1="576.33032"
       x2="69.076096"
       y2="576.33032" />
    <linearGradient
       inkscape:collect="always"
       xlink:href="#linearGradient4215"
       id="linearGradient4567"
       gradientUnits="userSpaceOnUse"
       x1="182.44403"
       y1="576.33032"
       x2="69.076096"
       y2="576.33032" />
    <linearGradient
       inkscape:collect="always"
       xlink:href="#linearGradient4215"
       id="linearGradient4569"
       gradientUnits="userSpaceOnUse"
       x1="182.44403"
       y1="576.33032"
       x2="69.076096"
       y2="576.33032" />
    <linearGradient
       inkscape:collect="always"
       xlink:href="#linearGradient4215"
       id="linearGradient4575"
       gradientUnits="userSpaceOnUse"
       x1="182.44403"
       y1="566.40295"
       x2="69.076096"
       y2="566.40295" />
    <linearGradient
       inkscape:collect="always"
       xlink:href="#linearGradient4215"
       id="linearGradient4577"
       gradientUnits="userSpaceOnUse"
       x1="182.44403"
       y1="566.40295"
       x2="69.076096"
       y2="566.40295" />
    <linearGradient
       inkscape:collect="always"
       xlink:href="#linearGradient4215"
       id="linearGradient4579"
       gradientUnits="userSpaceOnUse"
       x1="182.44403"
       y1="566.40295"
       x2="69.076096"
       y2="566.40295" />
    <linearGradient
       inkscape:collect="always"
       xlink:href="#linearGradient4215"
       id="linearGradient4585"
       gradientUnits="userSpaceOnUse"
       x1="182.44403"
       y1="556.47565"
       x2="69.076096"
       y2="556.47565" />
    <linearGradient
       inkscape:collect="always"
       xlink:href="#linearGradient4215"
       id="linearGradient4587"
       gradientUnits="userSpaceOnUse"
       x1="182.44403"
       y1="556.47565"
       x2="69.076096"
       y2="556.47565" />
    <linearGradient
       inkscape:collect="always"
       xlink:href="#linearGradient4215"
       id="linearGradient4589"
       gradientUnits="userSpaceOnUse"
       x1="182.44403"
       y1="556.47565"
       x2="69.076096"
       y2="556.47565" />
  </defs>
  <sodipodi:namedview
     id="base"
     pagecolor="#ffffff"
     bordercolor="#666666"
     borderopacity="1.0"
     inkscape:pageopacity="1"
     inkscape:pageshadow="2"
     inkscape:zoom="0.68512534"
     inkscape:cx="344.68905"
     inkscape:cy="377.16716"
     inkscape:document-units="px"
     inkscape:current-layer="layer1"
     showgrid="false"
     inkscape:window-width="1195"
     inkscape:window-height="893"
     inkscape:window-x="263"
     inkscape:window-y="63"
     inkscape:window-maximized="0"
     showguides="true"
     inkscape:guide-bbox="true"
     fit-margin-top="0"
     fit-margin-left="0"
     fit-margin-right="0"
     fit-margin-bottom="0" />
  <metadata
     id="metadata4998">
    <rdf:RDF>
      <cc:Work
         rdf:about="">
        <dc:format>image/svg+xml</dc:format>
        <dc:type
           rdf:resource="http://purl.org/dc/dcmitype/StillImage" />
        <dc:title></dc:title>
      </cc:Work>
    </rdf:RDF>
  </metadata>
  <g
     inkscape:label="Calque 1"
     inkscape:groupmode="layer"
     id="layer1"
     transform="translate(-14.744409,-317.56661)">
    <g
       transform="matrix(4.4887066,-0.18763398,0,4.4887066,558.9134,-1354.9946)"
       style="font-style:normal;font-weight:normal;font-size:40px;line-height:125%;font-family:Sans;letter-spacing:0px;word-spacing:0px;fill:#ffffff;fill-opacity:1;stroke:none"
       id="g4035" />
    <flowRoot
       xml:space="preserve"
       id="flowRoot5307"
       style="font-style:normal;font-weight:normal;font-size:40px;line-height:125%;font-family:Sans;letter-spacing:0px;word-spacing:0px;fill:#000000;fill-opacity:1;stroke:none;stroke-width:1px;stroke-linecap:butt;stroke-linejoin:miter;stroke-opacity:1"><flowRegion
         id="flowRegion5309"><rect
           id="rect5311"
           width="130"
           height="76"
           x="986"
           y="-979.90552" /></flowRegion><flowPara
         id="flowPara5313" /></flowRoot>    <g
       id="g4798"
       transform="translate(0,-400)">
      <text
         inkscape:export-ydpi="80"
         inkscape:export-xdpi="80"
         inkscape:export-filename="/Users/bruno/Desktop/logo.png"
         sodipodi:linespacing="125%"
         id="text4675"
         y="787.30157"
         x="195.94818"
         style="font-style:normal;font-variant:normal;font-weight:bold;font-stretch:normal;font-size:40px;line-height:125%;font-family:Eurostile;-inkscape-font-specification:'Eurostile, Bold';text-align:start;letter-spacing:0px;word-spacing:0px;writing-mode:lr-tb;text-anchor:start;fill:#008080;fill-opacity:1;stroke:none"
         xml:space="preserve"><tspan
           y="787.30157"
           x="195.94818"
           id="tspan4677"
           sodipodi:role="line">Service</tspan></text>
      <g
         inkscape:export-ydpi="80"
         inkscape:export-xdpi="80"
         inkscape:export-filename="/Users/bruno/Desktop/logo.png"
         id="g4679"
         style="font-style:normal;font-weight:normal;font-size:40px;line-height:125%;font-family:Sans;letter-spacing:0px;word-spacing:0px;fill:#e79e1d;fill-opacity:1;stroke:none"
         transform="matrix(3.9579976,-0.16544963,0,3.9579976,-402.8538,-1259.836)">
        <path
           style="fill:#e79e1d;fill-opacity:1"
           sodipodi:nodetypes="ccccscsccccccccsccccccc"
           inkscape:connector-curvature="0"
           id="path4681"
           d="m 126.55648,518.88686 c 0,-0.82345 -0.29787,-1.46842 -0.89357,-1.93491 -0.58863,-0.47054 -1.40065,-0.70581 -2.43606,-0.70581 -1.03541,0 -1.85097,0.23527 -2.44668,0.70581 -0.58863,0.46649 -0.88294,1.11146 -0.88294,1.93491 0,0.82346 0.29431,1.47046 0.88294,1.941 0.59571,0.46649 1.41127,0.69973 2.44668,0.69973 1.03541,0 1.84743,-0.23324 2.43606,-0.69973 0.5957,-0.47054 0.89357,-1.11754 0.89357,-1.941 m -6.65925,-2.37908 c 0.41132,-0.40564 0.92903,-0.70581 1.55312,-0.90053 0.63116,-0.19875 1.3829,-0.29813 2.25521,-0.29814 1.44672,10e-6 2.62043,0.32857 3.5211,0.98571 0.90775,0.65714 1.36162,1.52115 1.36163,2.59204 -1e-5,1.0709 -0.45388,1.93492 -1.36163,2.59205 -0.90067,0.65714 -2.07438,0.98571 -3.5211,0.98571 -0.87231,0 -1.62405,-0.0974 -2.25521,-0.29206 -0.62409,-0.19877 -1.1418,-0.50097 -1.55312,-0.90661 l 0,0.6752 -1.96799,0.34702 0,-9.46768 1.96799,0 0,3.68729" />
      </g>
      <text
         inkscape:export-ydpi="80"
         inkscape:export-xdpi="80"
         inkscape:export-filename="/Users/bruno/Desktop/logo.png"
         xml:space="preserve"
         style="font-style:normal;font-variant:normal;font-weight:bold;font-stretch:normal;font-size:40px;line-height:125%;font-family:Eurostile;-inkscape-font-specification:'Eurostile, Bold';text-align:start;letter-spacing:0px;word-spacing:0px;writing-mode:lr-tb;text-anchor:start;fill:#008080;fill-opacity:1;stroke:none"
         x="121.94818"
         y="787.30157"
         id="text4683"
         sodipodi:linespacing="125%"><tspan
           sodipodi:role="line"
           id="tspan4685"
           x="121.94818"
           y="787.30157">Info</tspan></text>
      <path
         inkscape:export-ydpi="80"
         inkscape:export-xdpi="80"
         inkscape:export-filename="/Users/bruno/Desktop/logo.png"
         sodipodi:nodetypes="cccccc"
         inkscape:connector-curvature="0"
         id="path4687"
         d="m 101.4589,793.71114 -54.2839,20.59687 -30.0266,-17.55755 22.493,-78.32617 72.2733,42.74834 z"
         inkscape:transform-center-y="-29.0131"
         inkscape:transform-center-x="8.2542988"
         style="fill:#008080;fill-opacity:1;stroke:#008080;stroke-width:1.71544147;stroke-linejoin:round;stroke-miterlimit:4;stroke-dasharray:none;stroke-opacity:1" />
      <g
         inkscape:export-ydpi="80"
         inkscape:export-xdpi="80"
         inkscape:export-filename="/Users/bruno/Desktop/logo.png"
         id="g4689"
         style="font-style:normal;font-weight:normal;font-size:40px;line-height:125%;font-family:Sans;letter-spacing:0px;word-spacing:0px;fill:#ffffff;fill-opacity:1;stroke:none"
         transform="matrix(4.5387983,-0.18972787,0,4.5387983,-493.3308,-1556.4693)">
        <path
           style="fill:#ffffff;fill-opacity:1"
           sodipodi:nodetypes="ccccscsccccccccsccccccc"
           inkscape:connector-curvature="0"
           id="path4691"
           d="m 126.55648,518.88686 c 0,-0.82345 -0.29787,-1.46842 -0.89357,-1.93491 -0.58863,-0.47054 -1.40065,-0.70581 -2.43606,-0.70581 -1.03541,0 -1.85097,0.23527 -2.44668,0.70581 -0.58863,0.46649 -0.88294,1.11146 -0.88294,1.93491 0,0.82346 0.29431,1.47046 0.88294,1.941 0.59571,0.46649 1.41127,0.69973 2.44668,0.69973 1.03541,0 1.84743,-0.23324 2.43606,-0.69973 0.5957,-0.47054 0.89357,-1.11754 0.89357,-1.941 m -6.65925,-2.37908 c 0.41132,-0.40564 0.92903,-0.70581 1.55312,-0.90053 0.63116,-0.19875 1.3829,-0.29813 2.25521,-0.29814 1.44672,10e-6 2.62043,0.32857 3.5211,0.98571 0.90775,0.65714 1.36162,1.52115 1.36163,2.59204 -1e-5,1.0709 -0.45388,1.93492 -1.36163,2.59205 -0.90067,0.65714 -2.07438,0.98571 -3.5211,0.98571 -0.87231,0 -1.62405,-0.0974 -2.25521,-0.29206 -0.62409,-0.19877 -1.1418,-0.50097 -1.55312,-0.90661 l 0,0.6752 -1.96799,0.34702 0,-9.46768 1.96799,0 0,3.68729" />
      </g>
    </g>
    <g
       id="g3913"
       transform="translate(-720,40)">
      <rect
         inkscape:export-ydpi="80"
         inkscape:export-xdpi="80"
         inkscape:export-filename="/Users/bruno/Desktop/logo2.png"
         y="915.16101"
         x="734.89441"
         height="102.17109"
         width="307.97281"
         id="rect3902"
         style="opacity:1;fill:#e79e1d;fill-opacity:1;stroke:#e79e1d;stroke-width:0.30000001;stroke-linecap:square;stroke-linejoin:round;stroke-miterlimit:4;stroke-dasharray:none;stroke-opacity:1" />
      <text
         xml:space="preserve"
         style="font-style:normal;font-variant:normal;font-weight:bold;font-stretch:normal;font-size:40px;line-height:125%;font-family:Eurostile;-inkscape-font-specification:'Eurostile, Bold';text-align:start;letter-spacing:0px;word-spacing:0px;writing-mode:lr-tb;text-anchor:start;fill:#ffffff;fill-opacity:1;stroke:none"
         x="915.94818"
         y="987.30157"
         id="text3884"
         sodipodi:linespacing="125%"
         inkscape:export-filename="/Users/bruno/Desktop/logo2.png"
         inkscape:export-xdpi="80"
         inkscape:export-ydpi="80"><tspan
           sodipodi:role="line"
           id="tspan3886"
           x="915.94818"
           y="987.30157">Service</tspan></text>
      <g
         transform="matrix(3.9579976,-0.16544963,0,3.9579976,317.1462,-1059.836)"
         style="font-style:normal;font-weight:normal;font-size:40px;line-height:125%;font-family:Sans;letter-spacing:0px;word-spacing:0px;fill:#e79e1d;fill-opacity:1;stroke:none"
         id="g3888"
         inkscape:export-filename="/Users/bruno/Desktop/logo2.png"
         inkscape:export-xdpi="80"
         inkscape:export-ydpi="80">
        <path
           d="m 126.55648,518.88686 c 0,-0.82345 -0.29787,-1.46842 -0.89357,-1.93491 -0.58863,-0.47054 -1.40065,-0.70581 -2.43606,-0.70581 -1.03541,0 -1.85097,0.23527 -2.44668,0.70581 -0.58863,0.46649 -0.88294,1.11146 -0.88294,1.93491 0,0.82346 0.29431,1.47046 0.88294,1.941 0.59571,0.46649 1.41127,0.69973 2.44668,0.69973 1.03541,0 1.84743,-0.23324 2.43606,-0.69973 0.5957,-0.47054 0.89357,-1.11754 0.89357,-1.941 m -6.65925,-2.37908 c 0.41132,-0.40564 0.92903,-0.70581 1.55312,-0.90053 0.63116,-0.19875 1.3829,-0.29813 2.25521,-0.29814 1.44672,10e-6 2.62043,0.32857 3.5211,0.98571 0.90775,0.65714 1.36162,1.52115 1.36163,2.59204 -1e-5,1.0709 -0.45388,1.93492 -1.36163,2.59205 -0.90067,0.65714 -2.07438,0.98571 -3.5211,0.98571 -0.87231,0 -1.62405,-0.0974 -2.25521,-0.29206 -0.62409,-0.19877 -1.1418,-0.50097 -1.55312,-0.90661 l 0,0.6752 -1.96799,0.34702 0,-9.46768 1.96799,0 0,3.68729"
           id="path3890"
           inkscape:connector-curvature="0"
           sodipodi:nodetypes="ccccscsccccccccsccccccc"
           style="fill:#e79e1d;fill-opacity:1" />
      </g>
      <text
         sodipodi:linespacing="125%"
         id="text3892"
         y="987.30157"
         x="841.94818"
         style="font-style:normal;font-variant:normal;font-weight:bold;font-stretch:normal;font-size:40px;line-height:125%;font-family:Eurostile;-inkscape-font-specification:'Eurostile, Bold';text-align:start;letter-spacing:0px;word-spacing:0px;writing-mode:lr-tb;text-anchor:start;fill:#ffffff;fill-opacity:1;stroke:none"
         xml:space="preserve"
         inkscape:export-filename="/Users/bruno/Desktop/logo2.png"
         inkscape:export-xdpi="80"
         inkscape:export-ydpi="80"><tspan
           y="987.30157"
           x="841.94818"
           id="tspan3894"
           sodipodi:role="line">Info</tspan></text>
      <path
         style="fill:#ffffff;fill-opacity:1;stroke:#ffffff;stroke-width:1.71544147;stroke-linejoin:round;stroke-miterlimit:4;stroke-dasharray:none;stroke-opacity:1"
         inkscape:transform-center-x="8.2542988"
         inkscape:transform-center-y="-29.0131"
         d="m 821.4589,993.7111 -54.2839,20.5969 -30.0266,-17.5575 22.493,-78.3262 72.2733,42.7483 z"
         id="path3896"
         inkscape:connector-curvature="0"
         sodipodi:nodetypes="cccccc"
         inkscape:export-filename="/Users/bruno/Desktop/logo2.png"
         inkscape:export-xdpi="80"
         inkscape:export-ydpi="80" />
      <g
         transform="matrix(4.5387983,-0.18972787,0,4.5387983,226.6692,-1356.4693)"
         style="font-style:normal;font-weight:normal;font-size:40px;line-height:125%;font-family:Sans;letter-spacing:0px;word-spacing:0px;fill:#e79e1d;fill-opacity:1;stroke:none"
         id="g3898"
         inkscape:export-filename="/Users/bruno/Desktop/logo2.png"
         inkscape:export-xdpi="80"
         inkscape:export-ydpi="80">
        <path
           d="m 126.55648,518.88686 c 0,-0.82345 -0.29787,-1.46842 -0.89357,-1.93491 -0.58863,-0.47054 -1.40065,-0.70581 -2.43606,-0.70581 -1.03541,0 -1.85097,0.23527 -2.44668,0.70581 -0.58863,0.46649 -0.88294,1.11146 -0.88294,1.93491 0,0.82346 0.29431,1.47046 0.88294,1.941 0.59571,0.46649 1.41127,0.69973 2.44668,0.69973 1.03541,0 1.84743,-0.23324 2.43606,-0.69973 0.5957,-0.47054 0.89357,-1.11754 0.89357,-1.941 m -6.65925,-2.37908 c 0.41132,-0.40564 0.92903,-0.70581 1.55312,-0.90053 0.63116,-0.19875 1.3829,-0.29813 2.25521,-0.29814 1.44672,10e-6 2.62043,0.32857 3.5211,0.98571 0.90775,0.65714 1.36162,1.52115 1.36163,2.59204 -1e-5,1.0709 -0.45388,1.93492 -1.36163,2.59205 -0.90067,0.65714 -2.07438,0.98571 -3.5211,0.98571 -0.87231,0 -1.62405,-0.0974 -2.25521,-0.29206 -0.62409,-0.19877 -1.1418,-0.50097 -1.55312,-0.90661 l 0,0.6752 -1.96799,0.34702 0,-9.46768 1.96799,0 0,3.68729"
           id="path3900"
           inkscape:connector-curvature="0"
           sodipodi:nodetypes="ccccscsccccccccsccccccc"
           style="fill:#e79e1d;fill-opacity:1" />
      </g>
    </g>
    <g
       id="g3925"
       transform="translate(-720,120)">
      <text
         xml:space="preserve"
         style="font-style:normal;font-variant:normal;font-weight:bold;font-stretch:normal;font-size:40px;line-height:125%;font-family:Eurostile;-inkscape-font-specification:'Eurostile, Bold';text-align:start;letter-spacing:0px;word-spacing:0px;writing-mode:lr-tb;text-anchor:start;fill:#e79e1d;fill-opacity:1;stroke:none"
         x="915.94818"
         y="787.30157"
         id="text3894"
         sodipodi:linespacing="125%"
         inkscape:export-filename="/Users/bruno/Desktop/logo.png"
         inkscape:export-xdpi="80"
         inkscape:export-ydpi="80"><tspan
           sodipodi:role="line"
           id="tspan3896"
           x="915.94818"
           y="787.30157">Service</tspan></text>
      <g
         transform="matrix(3.9579976,-0.16544963,0,3.9579976,317.1462,-1259.836)"
         style="font-style:normal;font-weight:normal;font-size:40px;line-height:125%;font-family:Sans;letter-spacing:0px;word-spacing:0px;fill:#e79e1d;fill-opacity:1;stroke:none"
         id="g3899"
         inkscape:export-filename="/Users/bruno/Desktop/logo.png"
         inkscape:export-xdpi="80"
         inkscape:export-ydpi="80">
        <path
           d="m 126.55648,518.88686 c 0,-0.82345 -0.29787,-1.46842 -0.89357,-1.93491 -0.58863,-0.47054 -1.40065,-0.70581 -2.43606,-0.70581 -1.03541,0 -1.85097,0.23527 -2.44668,0.70581 -0.58863,0.46649 -0.88294,1.11146 -0.88294,1.93491 0,0.82346 0.29431,1.47046 0.88294,1.941 0.59571,0.46649 1.41127,0.69973 2.44668,0.69973 1.03541,0 1.84743,-0.23324 2.43606,-0.69973 0.5957,-0.47054 0.89357,-1.11754 0.89357,-1.941 m -6.65925,-2.37908 c 0.41132,-0.40564 0.92903,-0.70581 1.55312,-0.90053 0.63116,-0.19875 1.3829,-0.29813 2.25521,-0.29814 1.44672,10e-6 2.62043,0.32857 3.5211,0.98571 0.90775,0.65714 1.36162,1.52115 1.36163,2.59204 -1e-5,1.0709 -0.45388,1.93492 -1.36163,2.59205 -0.90067,0.65714 -2.07438,0.98571 -3.5211,0.98571 -0.87231,0 -1.62405,-0.0974 -2.25521,-0.29206 -0.62409,-0.19877 -1.1418,-0.50097 -1.55312,-0.90661 l 0,0.6752 -1.96799,0.34702 0,-9.46768 1.96799,0 0,3.68729"
           id="path3901"
           inkscape:connector-curvature="0"
           sodipodi:nodetypes="ccccscsccccccccsccccccc"
           style="fill:#e79e1d;fill-opacity:1" />
      </g>
      <text
         sodipodi:linespacing="125%"
         id="text3903"
         y="787.30157"
         x="841.94818"
         style="font-style:normal;font-variant:normal;font-weight:bold;font-stretch:normal;font-size:40px;line-height:125%;font-family:Eurostile;-inkscape-font-specification:'Eurostile, Bold';text-align:start;letter-spacing:0px;word-spacing:0px;writing-mode:lr-tb;text-anchor:start;fill:#e79e1d;fill-opacity:1;stroke:none"
         xml:space="preserve"
         inkscape:export-filename="/Users/bruno/Desktop/logo.png"
         inkscape:export-xdpi="80"
         inkscape:export-ydpi="80"><tspan
           y="787.30157"
           x="841.94818"
           id="tspan3905"
           sodipodi:role="line">Info</tspan></text>
      <path
         style="fill:#e79e1d;fill-opacity:1;stroke:#e79e1d;stroke-width:1.71544147;stroke-linejoin:round;stroke-miterlimit:4;stroke-dasharray:none;stroke-opacity:1"
         inkscape:transform-center-x="8.2542988"
         inkscape:transform-center-y="-29.0131"
         d="m 821.4589,793.71114 -54.2839,20.59687 -30.0266,-17.55755 22.493,-78.32617 72.2733,42.74834 z"
         id="path3907"
         inkscape:connector-curvature="0"
         sodipodi:nodetypes="cccccc"
         inkscape:export-filename="/Users/bruno/Desktop/logo.png"
         inkscape:export-xdpi="80"
         inkscape:export-ydpi="80" />
      <g
         transform="matrix(4.5387983,-0.18972787,0,4.5387983,226.6692,-1556.4693)"
         style="font-style:normal;font-weight:normal;font-size:40px;line-height:125%;font-family:Sans;letter-spacing:0px;word-spacing:0px;fill:#ffffff;fill-opacity:1;stroke:none"
         id="g3909"
         inkscape:export-filename="/Users/bruno/Desktop/logo.png"
         inkscape:export-xdpi="80"
         inkscape:export-ydpi="80">
        <path
           d="m 126.55648,518.88686 c 0,-0.82345 -0.29787,-1.46842 -0.89357,-1.93491 -0.58863,-0.47054 -1.40065,-0.70581 -2.43606,-0.70581 -1.03541,0 -1.85097,0.23527 -2.44668,0.70581 -0.58863,0.46649 -0.88294,1.11146 -0.88294,1.93491 0,0.82346 0.29431,1.47046 0.88294,1.941 0.59571,0.46649 1.41127,0.69973 2.44668,0.69973 1.03541,0 1.84743,-0.23324 2.43606,-0.69973 0.5957,-0.47054 0.89357,-1.11754 0.89357,-1.941 m -6.65925,-2.37908 c 0.41132,-0.40564 0.92903,-0.70581 1.55312,-0.90053 0.63116,-0.19875 1.3829,-0.29813 2.25521,-0.29814 1.44672,10e-6 2.62043,0.32857 3.5211,0.98571 0.90775,0.65714 1.36162,1.52115 1.36163,2.59204 -1e-5,1.0709 -0.45388,1.93492 -1.36163,2.59205 -0.90067,0.65714 -2.07438,0.98571 -3.5211,0.98571 -0.87231,0 -1.62405,-0.0974 -2.25521,-0.29206 -0.62409,-0.19877 -1.1418,-0.50097 -1.55312,-0.90661 l 0,0.6752 -1.96799,0.34702 0,-9.46768 1.96799,0 0,3.68729"
           id="path3911"
           inkscape:connector-curvature="0"
           sodipodi:nodetypes="ccccscsccccccccsccccccc"
           style="fill:#ffffff;fill-opacity:1" />
      </g>
    </g>
    <g
       id="g4768"
       transform="translate(0,-480)">
      <rect
         style="opacity:1;fill:#008080;fill-opacity:1;stroke:#e79e1d;stroke-width:0.30000001;stroke-linecap:square;stroke-linejoin:round;stroke-miterlimit:4;stroke-dasharray:none;stroke-opacity:1"
         id="rect3938"
         width="307.97281"
         height="102.17109"
         x="14.894409"
         y="915.16101"
         inkscape:export-filename="/Users/bruno/Desktop/logo2.png"
         inkscape:export-xdpi="80"
         inkscape:export-ydpi="80" />
      <text
         inkscape:export-ydpi="80"
         inkscape:export-xdpi="80"
         inkscape:export-filename="/Users/bruno/Desktop/logo2.png"
         sodipodi:linespacing="125%"
         id="text3940"
         y="987.30157"
         x="195.94818"
         style="font-style:normal;font-variant:normal;font-weight:bold;font-stretch:normal;font-size:40px;line-height:125%;font-family:Eurostile;-inkscape-font-specification:'Eurostile, Bold';text-align:start;letter-spacing:0px;word-spacing:0px;writing-mode:lr-tb;text-anchor:start;fill:#ffffff;fill-opacity:1;stroke:none"
         xml:space="preserve"><tspan
           y="987.30157"
           x="195.94818"
           id="tspan3942"
           sodipodi:role="line">Service</tspan></text>
      <g
         inkscape:export-ydpi="80"
         inkscape:export-xdpi="80"
         inkscape:export-filename="/Users/bruno/Desktop/logo2.png"
         id="g3944"
         style="font-style:normal;font-weight:normal;font-size:40px;line-height:125%;font-family:Sans;letter-spacing:0px;word-spacing:0px;fill:#e79e1d;fill-opacity:1;stroke:none"
         transform="matrix(3.9579976,-0.16544963,0,3.9579976,-402.8538,-1059.836)">
        <path
           style="fill:#e79e1d;fill-opacity:1"
           sodipodi:nodetypes="ccccscsccccccccsccccccc"
           inkscape:connector-curvature="0"
           id="path3946"
           d="m 126.55648,518.88686 c 0,-0.82345 -0.29787,-1.46842 -0.89357,-1.93491 -0.58863,-0.47054 -1.40065,-0.70581 -2.43606,-0.70581 -1.03541,0 -1.85097,0.23527 -2.44668,0.70581 -0.58863,0.46649 -0.88294,1.11146 -0.88294,1.93491 0,0.82346 0.29431,1.47046 0.88294,1.941 0.59571,0.46649 1.41127,0.69973 2.44668,0.69973 1.03541,0 1.84743,-0.23324 2.43606,-0.69973 0.5957,-0.47054 0.89357,-1.11754 0.89357,-1.941 m -6.65925,-2.37908 c 0.41132,-0.40564 0.92903,-0.70581 1.55312,-0.90053 0.63116,-0.19875 1.3829,-0.29813 2.25521,-0.29814 1.44672,10e-6 2.62043,0.32857 3.5211,0.98571 0.90775,0.65714 1.36162,1.52115 1.36163,2.59204 -1e-5,1.0709 -0.45388,1.93492 -1.36163,2.59205 -0.90067,0.65714 -2.07438,0.98571 -3.5211,0.98571 -0.87231,0 -1.62405,-0.0974 -2.25521,-0.29206 -0.62409,-0.19877 -1.1418,-0.50097 -1.55312,-0.90661 l 0,0.6752 -1.96799,0.34702 0,-9.46768 1.96799,0 0,3.68729" />
      </g>
      <text
         inkscape:export-ydpi="80"
         inkscape:export-xdpi="80"
         inkscape:export-filename="/Users/bruno/Desktop/logo2.png"
         xml:space="preserve"
         style="font-style:normal;font-variant:normal;font-weight:bold;font-stretch:normal;font-size:40px;line-height:125%;font-family:Eurostile;-inkscape-font-specification:'Eurostile, Bold';text-align:start;letter-spacing:0px;word-spacing:0px;writing-mode:lr-tb;text-anchor:start;fill:#ffffff;fill-opacity:1;stroke:none"
         x="121.94818"
         y="987.30157"
         id="text3948"
         sodipodi:linespacing="125%"><tspan
           sodipodi:role="line"
           id="tspan3950"
           x="121.94818"
           y="987.30157">Info</tspan></text>
      <path
         inkscape:export-ydpi="80"
         inkscape:export-xdpi="80"
         inkscape:export-filename="/Users/bruno/Desktop/logo2.png"
         sodipodi:nodetypes="cccccc"
         inkscape:connector-curvature="0"
         id="path3952"
         d="m 101.4589,993.7111 -54.2839,20.5969 -30.0266,-17.5575 22.493,-78.3262 72.2733,42.7483 z"
         inkscape:transform-center-y="-29.0131"
         inkscape:transform-center-x="8.2542988"
         style="fill:#ffffff;fill-opacity:1;stroke:#ffffff;stroke-width:1.71544147;stroke-linejoin:round;stroke-miterlimit:4;stroke-dasharray:none;stroke-opacity:1" />
      <g
         inkscape:export-ydpi="80"
         inkscape:export-xdpi="80"
         inkscape:export-filename="/Users/bruno/Desktop/logo2.png"
         id="g3954"
         style="font-style:normal;font-weight:normal;font-size:40px;line-height:125%;font-family:Sans;letter-spacing:0px;word-spacing:0px;fill:#008080;fill-opacity:1;stroke:none"
         transform="matrix(4.5387983,-0.18972787,0,4.5387983,-493.3308,-1356.4693)">
        <path
           style="fill:#008080;fill-opacity:1"
           sodipodi:nodetypes="ccccscsccccccccsccccccc"
           inkscape:connector-curvature="0"
           id="path3956"
           d="m 126.55648,518.88686 c 0,-0.82345 -0.29787,-1.46842 -0.89357,-1.93491 -0.58863,-0.47054 -1.40065,-0.70581 -2.43606,-0.70581 -1.03541,0 -1.85097,0.23527 -2.44668,0.70581 -0.58863,0.46649 -0.88294,1.11146 -0.88294,1.93491 0,0.82346 0.29431,1.47046 0.88294,1.941 0.59571,0.46649 1.41127,0.69973 2.44668,0.69973 1.03541,0 1.84743,-0.23324 2.43606,-0.69973 0.5957,-0.47054 0.89357,-1.11754 0.89357,-1.941 m -6.65925,-2.37908 c 0.41132,-0.40564 0.92903,-0.70581 1.55312,-0.90053 0.63116,-0.19875 1.3829,-0.29813 2.25521,-0.29814 1.44672,10e-6 2.62043,0.32857 3.5211,0.98571 0.90775,0.65714 1.36162,1.52115 1.36163,2.59204 -1e-5,1.0709 -0.45388,1.93492 -1.36163,2.59205 -0.90067,0.65714 -2.07438,0.98571 -3.5211,0.98571 -0.87231,0 -1.62405,-0.0974 -2.25521,-0.29206 -0.62409,-0.19877 -1.1418,-0.50097 -1.55312,-0.90661 l 0,0.6752 -1.96799,0.34702 0,-9.46768 1.96799,0 0,3.68729" />
      </g>
    </g>
    <g
       id="g4809"
       transform="translate(-360,-140)">
      <text
         xml:space="preserve"
         style="font-style:normal;font-variant:normal;font-weight:bold;font-stretch:normal;font-size:40px;line-height:125%;font-family:Eurostile;-inkscape-font-specification:'Eurostile, Bold';text-align:start;letter-spacing:0px;word-spacing:0px;writing-mode:lr-tb;text-anchor:start;fill:#000000;fill-opacity:1;stroke:none"
         x="555.94818"
         y="787.30157"
         id="text4780"
         sodipodi:linespacing="125%"
         inkscape:export-filename="/Users/bruno/Desktop/logo.png"
         inkscape:export-xdpi="80"
         inkscape:export-ydpi="80"><tspan
           sodipodi:role="line"
           id="tspan4782"
           x="555.94818"
           y="787.30157">Service</tspan></text>
      <g
         transform="matrix(3.9579976,-0.16544963,0,3.9579976,-42.8538,-1259.836)"
         style="font-style:normal;font-weight:normal;font-size:40px;line-height:125%;font-family:Sans;letter-spacing:0px;word-spacing:0px;fill:#e79e1d;fill-opacity:1;stroke:none"
         id="g4784"
         inkscape:export-filename="/Users/bruno/Desktop/logo.png"
         inkscape:export-xdpi="80"
         inkscape:export-ydpi="80">
        <path
           d="m 126.55648,518.88686 c 0,-0.82345 -0.29787,-1.46842 -0.89357,-1.93491 -0.58863,-0.47054 -1.40065,-0.70581 -2.43606,-0.70581 -1.03541,0 -1.85097,0.23527 -2.44668,0.70581 -0.58863,0.46649 -0.88294,1.11146 -0.88294,1.93491 0,0.82346 0.29431,1.47046 0.88294,1.941 0.59571,0.46649 1.41127,0.69973 2.44668,0.69973 1.03541,0 1.84743,-0.23324 2.43606,-0.69973 0.5957,-0.47054 0.89357,-1.11754 0.89357,-1.941 m -6.65925,-2.37908 c 0.41132,-0.40564 0.92903,-0.70581 1.55312,-0.90053 0.63116,-0.19875 1.3829,-0.29813 2.25521,-0.29814 1.44672,10e-6 2.62043,0.32857 3.5211,0.98571 0.90775,0.65714 1.36162,1.52115 1.36163,2.59204 -1e-5,1.0709 -0.45388,1.93492 -1.36163,2.59205 -0.90067,0.65714 -2.07438,0.98571 -3.5211,0.98571 -0.87231,0 -1.62405,-0.0974 -2.25521,-0.29206 -0.62409,-0.19877 -1.1418,-0.50097 -1.55312,-0.90661 l 0,0.6752 -1.96799,0.34702 0,-9.46768 1.96799,0 0,3.68729"
           id="path4786"
           inkscape:connector-curvature="0"
           sodipodi:nodetypes="ccccscsccccccccsccccccc"
           style="fill:#e79e1d;fill-opacity:1" />
      </g>
      <text
         sodipodi:linespacing="125%"
         id="text4788"
         y="787.30157"
         x="481.94818"
         style="font-style:normal;font-variant:normal;font-weight:bold;font-stretch:normal;font-size:40px;line-height:125%;font-family:Eurostile;-inkscape-font-specification:'Eurostile, Bold';text-align:start;letter-spacing:0px;word-spacing:0px;writing-mode:lr-tb;text-anchor:start;fill:#000000;fill-opacity:1;stroke:none"
         xml:space="preserve"
         inkscape:export-filename="/Users/bruno/Desktop/logo.png"
         inkscape:export-xdpi="80"
         inkscape:export-ydpi="80"><tspan
           y="787.30157"
           x="481.94818"
           id="tspan4790"
           sodipodi:role="line">Info</tspan></text>
      <path
         style="fill:#000000;fill-opacity:1;stroke:#000000;stroke-width:1.71544147;stroke-linejoin:round;stroke-miterlimit:4;stroke-dasharray:none;stroke-opacity:1"
         inkscape:transform-center-x="8.2542988"
         inkscape:transform-center-y="-29.0131"
         d="m 461.4589,793.71114 -54.2839,20.59687 -30.0266,-17.55755 22.493,-78.32617 72.2733,42.74834 z"
         id="path4792"
         inkscape:connector-curvature="0"
         sodipodi:nodetypes="cccccc"
         inkscape:export-filename="/Users/bruno/Desktop/logo.png"
         inkscape:export-xdpi="80"
         inkscape:export-ydpi="80" />
      <g
         transform="matrix(4.5387983,-0.18972787,0,4.5387983,-133.3308,-1556.4693)"
         style="font-style:normal;font-weight:normal;font-size:40px;line-height:125%;font-family:Sans;letter-spacing:0px;word-spacing:0px;fill:#ffffff;fill-opacity:1;stroke:none"
         id="g4794"
         inkscape:export-filename="/Users/bruno/Desktop/logo.png"
         inkscape:export-xdpi="80"
         inkscape:export-ydpi="80">
        <path
           d="m 126.55648,518.88686 c 0,-0.82345 -0.29787,-1.46842 -0.89357,-1.93491 -0.58863,-0.47054 -1.40065,-0.70581 -2.43606,-0.70581 -1.03541,0 -1.85097,0.23527 -2.44668,0.70581 -0.58863,0.46649 -0.88294,1.11146 -0.88294,1.93491 0,0.82346 0.29431,1.47046 0.88294,1.941 0.59571,0.46649 1.41127,0.69973 2.44668,0.69973 1.03541,0 1.84743,-0.23324 2.43606,-0.69973 0.5957,-0.47054 0.89357,-1.11754 0.89357,-1.941 m -6.65925,-2.37908 c 0.41132,-0.40564 0.92903,-0.70581 1.55312,-0.90053 0.63116,-0.19875 1.3829,-0.29813 2.25521,-0.29814 1.44672,10e-6 2.62043,0.32857 3.5211,0.98571 0.90775,0.65714 1.36162,1.52115 1.36163,2.59204 -1e-5,1.0709 -0.45388,1.93492 -1.36163,2.59205 -0.90067,0.65714 -2.07438,0.98571 -3.5211,0.98571 -0.87231,0 -1.62405,-0.0974 -2.25521,-0.29206 -0.62409,-0.19877 -1.1418,-0.50097 -1.55312,-0.90661 l 0,0.6752 -1.96799,0.34702 0,-9.46768 1.96799,0 0,3.68729"
           id="path4796"
           inkscape:connector-curvature="0"
           sodipodi:nodetypes="ccccscsccccccccsccccccc"
           style="fill:#ffffff;fill-opacity:1" />
      </g>
    </g>
    <g
       id="g4852"
       transform="translate(-360,-140)">
      <rect
         inkscape:export-ydpi="80"
         inkscape:export-xdpi="80"
         inkscape:export-filename="/Users/bruno/Desktop/logo2.png"
         y="835.16101"
         x="374.89441"
         height="102.17109"
         width="307.97281"
         id="rect4822"
         style="opacity:1;fill:#000000;fill-opacity:1;stroke:#e79e1d;stroke-width:0.30000001;stroke-linecap:square;stroke-linejoin:round;stroke-miterlimit:4;stroke-dasharray:none;stroke-opacity:1" />
      <text
         xml:space="preserve"
         style="font-style:normal;font-variant:normal;font-weight:bold;font-stretch:normal;font-size:40px;line-height:125%;font-family:Eurostile;-inkscape-font-specification:'Eurostile, Bold';text-align:start;letter-spacing:0px;word-spacing:0px;writing-mode:lr-tb;text-anchor:start;fill:#ffffff;fill-opacity:1;stroke:none"
         x="555.94818"
         y="907.30157"
         id="text4824"
         sodipodi:linespacing="125%"
         inkscape:export-filename="/Users/bruno/Desktop/logo2.png"
         inkscape:export-xdpi="80"
         inkscape:export-ydpi="80"><tspan
           sodipodi:role="line"
           id="tspan4826"
           x="555.94818"
           y="907.30157">Service</tspan></text>
      <g
         transform="matrix(3.9579976,-0.16544963,0,3.9579976,-42.8538,-1139.836)"
         style="font-style:normal;font-weight:normal;font-size:40px;line-height:125%;font-family:Sans;letter-spacing:0px;word-spacing:0px;fill:#e79e1d;fill-opacity:1;stroke:none"
         id="g4828"
         inkscape:export-filename="/Users/bruno/Desktop/logo2.png"
         inkscape:export-xdpi="80"
         inkscape:export-ydpi="80">
        <path
           d="m 126.55648,518.88686 c 0,-0.82345 -0.29787,-1.46842 -0.89357,-1.93491 -0.58863,-0.47054 -1.40065,-0.70581 -2.43606,-0.70581 -1.03541,0 -1.85097,0.23527 -2.44668,0.70581 -0.58863,0.46649 -0.88294,1.11146 -0.88294,1.93491 0,0.82346 0.29431,1.47046 0.88294,1.941 0.59571,0.46649 1.41127,0.69973 2.44668,0.69973 1.03541,0 1.84743,-0.23324 2.43606,-0.69973 0.5957,-0.47054 0.89357,-1.11754 0.89357,-1.941 m -6.65925,-2.37908 c 0.41132,-0.40564 0.92903,-0.70581 1.55312,-0.90053 0.63116,-0.19875 1.3829,-0.29813 2.25521,-0.29814 1.44672,10e-6 2.62043,0.32857 3.5211,0.98571 0.90775,0.65714 1.36162,1.52115 1.36163,2.59204 -1e-5,1.0709 -0.45388,1.93492 -1.36163,2.59205 -0.90067,0.65714 -2.07438,0.98571 -3.5211,0.98571 -0.87231,0 -1.62405,-0.0974 -2.25521,-0.29206 -0.62409,-0.19877 -1.1418,-0.50097 -1.55312,-0.90661 l 0,0.6752 -1.96799,0.34702 0,-9.46768 1.96799,0 0,3.68729"
           id="path4830"
           inkscape:connector-curvature="0"
           sodipodi:nodetypes="ccccscsccccccccsccccccc"
           style="fill:#e79e1d;fill-opacity:1" />
      </g>
      <text
         sodipodi:linespacing="125%"
         id="text4832"
         y="907.30157"
         x="481.94818"
         style="font-style:normal;font-variant:normal;font-weight:bold;font-stretch:normal;font-size:40px;line-height:125%;font-family:Eurostile;-inkscape-font-specification:'Eurostile, Bold';text-align:start;letter-spacing:0px;word-spacing:0px;writing-mode:lr-tb;text-anchor:start;fill:#ffffff;fill-opacity:1;stroke:none"
         xml:space="preserve"
         inkscape:export-filename="/Users/bruno/Desktop/logo2.png"
         inkscape:export-xdpi="80"
         inkscape:export-ydpi="80"><tspan
           y="907.30157"
           x="481.94818"
           id="tspan4834"
           sodipodi:role="line">Info</tspan></text>
      <path
         style="fill:#ffffff;fill-opacity:1;stroke:#ffffff;stroke-width:1.71544147;stroke-linejoin:round;stroke-miterlimit:4;stroke-dasharray:none;stroke-opacity:1"
         inkscape:transform-center-x="8.2542988"
         inkscape:transform-center-y="-29.0131"
         d="m 461.4589,913.7111 -54.2839,20.5969 -30.0266,-17.5575 22.493,-78.3262 72.2733,42.7483 z"
         id="path4836"
         inkscape:connector-curvature="0"
         sodipodi:nodetypes="cccccc"
         inkscape:export-filename="/Users/bruno/Desktop/logo2.png"
         inkscape:export-xdpi="80"
         inkscape:export-ydpi="80" />
      <g
         transform="matrix(4.5387983,-0.18972787,0,4.5387983,-133.3308,-1436.4693)"
         style="font-style:normal;font-weight:normal;font-size:40px;line-height:125%;font-family:Sans;letter-spacing:0px;word-spacing:0px;fill:#000000;fill-opacity:1;stroke:none"
         id="g4838"
         inkscape:export-filename="/Users/bruno/Desktop/logo2.png"
         inkscape:export-xdpi="80"
         inkscape:export-ydpi="80">
        <path
           d="m 126.55648,518.88686 c 0,-0.82345 -0.29787,-1.46842 -0.89357,-1.93491 -0.58863,-0.47054 -1.40065,-0.70581 -2.43606,-0.70581 -1.03541,0 -1.85097,0.23527 -2.44668,0.70581 -0.58863,0.46649 -0.88294,1.11146 -0.88294,1.93491 0,0.82346 0.29431,1.47046 0.88294,1.941 0.59571,0.46649 1.41127,0.69973 2.44668,0.69973 1.03541,0 1.84743,-0.23324 2.43606,-0.69973 0.5957,-0.47054 0.89357,-1.11754 0.89357,-1.941 m -6.65925,-2.37908 c 0.41132,-0.40564 0.92903,-0.70581 1.55312,-0.90053 0.63116,-0.19875 1.3829,-0.29813 2.25521,-0.29814 1.44672,10e-6 2.62043,0.32857 3.5211,0.98571 0.90775,0.65714 1.36162,1.52115 1.36163,2.59204 -1e-5,1.0709 -0.45388,1.93492 -1.36163,2.59205 -0.90067,0.65714 -2.07438,0.98571 -3.5211,0.98571 -0.87231,0 -1.62405,-0.0974 -2.25521,-0.29206 -0.62409,-0.19877 -1.1418,-0.50097 -1.55312,-0.90661 l 0,0.6752 -1.96799,0.34702 0,-9.46768 1.96799,0 0,3.68729"
           id="path4840"
           inkscape:connector-curvature="0"
           sodipodi:nodetypes="ccccscsccccccccsccccccc"
           style="fill:#000000;fill-opacity:1" />
      </g>
    </g>
  </g>
</svg>
