<?xml version="1.0" encoding="UTF-8" standalone="no"?>
<!-- Created with Inkscape (http://www.inkscape.org/) -->

<svg
   xmlns:dc="http://purl.org/dc/elements/1.1/"
   xmlns:cc="http://creativecommons.org/ns#"
   xmlns:rdf="http://www.w3.org/1999/02/22-rdf-syntax-ns#"
   xmlns:svg="http://www.w3.org/2000/svg"
   xmlns="http://www.w3.org/2000/svg"
   xmlns:sodipodi="http://sodipodi.sourceforge.net/DTD/sodipodi-0.dtd"
   xmlns:inkscape="http://www.inkscape.org/namespaces/inkscape"
   width="199.90233mm"
   height="65.92067mm"
   id="svg4993"
   sodipodi:version="0.32"
   inkscape:version="0.91 r13725"
   sodipodi:docname="logo_v2.2.1.svg"
   inkscape:output_extension="org.inkscape.output.svg.inkscape"
   inkscape:export-filename="/Users/brunoboissonnet/Documents/binfoservice/logo/logo_v2.2.png"
   inkscape:export-xdpi="80.800003"
   inkscape:export-ydpi="80.800003"
   version="1.1">
  <defs
     id="defs4995">
    <inkscape:perspective
       sodipodi:type="inkscape:persp3d"
       inkscape:vp_x="0 : 526.18109 : 1"
       inkscape:vp_y="0 : 1000 : 0"
       inkscape:vp_z="744.09448 : 526.18109 : 1"
       inkscape:persp3d-origin="372.04724 : 350.78739 : 1"
       id="perspective5001" />
  </defs>
  <sodipodi:namedview
     id="base"
     pagecolor="#ffffff"
     bordercolor="#666666"
     borderopacity="1.0"
     inkscape:pageopacity="0"
     inkscape:pageshadow="2"
     inkscape:zoom="0.95024318"
     inkscape:cx="258.5258"
     inkscape:cy="220.77857"
     inkscape:document-units="px"
     inkscape:current-layer="layer1"
     showgrid="false"
     inkscape:window-width="1398"
     inkscape:window-height="932"
     inkscape:window-x="309"
     inkscape:window-y="24"
     inkscape:window-maximized="0"
     fit-margin-top="5"
     fit-margin-right="5"
     fit-margin-bottom="5"
     fit-margin-left="5" />
  <metadata
     id="metadata4998">
    <rdf:RDF>
      <cc:Work
         rdf:about="">
        <dc:format>image/svg+xml</dc:format>
        <dc:type
           rdf:resource="http://purl.org/dc/dcmitype/StillImage" />
        <dc:title></dc:title>
      </cc:Work>
    </rdf:RDF>
  </metadata>
  <g
     inkscape:label="Calque 1"
     inkscape:groupmode="layer"
     id="layer1"
     transform="translate(-3.1704713,0.96732315)">
    <rect
       style="opacity:1;fill:#1a1a1a;fill-opacity:1;stroke:#000000;stroke-width:0.27119824;stroke-linecap:square;stroke-linejoin:round;stroke-miterlimit:4;stroke-dasharray:none;stroke-opacity:1"
       id="rect4367"
       width="192.61108"
       height="197.87291"
       x="21.022606"
       y="16.884811" />
    <path
       inkscape:connector-curvature="0"
       id="path4369"
       d="m 41.393758,154.4825 0,-52.28071 7.86265,0 0,22.90362 c 3.21953,-4.99474 8.048893,-7.4921 14.488012,-7.49215 5.2151,5e-5 9.31274,1.56639 12.29292,4.69901 3.00659,3.13273 4.50998,7.41553 4.50998,12.8484 0,5.91484 -1.70294,10.69055 -5.10872,14.32707 -3.37922,3.61465 -7.83604,5.42195 -13.37046,5.42195 -5.135379,0 -9.405952,-1.62109 -12.811732,-4.86331 l -0.95792,4.43612 -6.90473,0 m 7.86265,-8.90512 c 4.04437,2.97933 7.902513,4.469 11.574452,4.469 3.61863,0 6.41247,-1.23773 8.38151,-3.71321 1.96891,-2.49737 2.95343,-6.00248 2.95348,-10.51529 -5e-5,-8.3684 -3.35262,-12.55261 -10.0578,-12.55266 -4.390359,5e-5 -8.674242,1.96072 -12.851642,5.88202 l 0,16.43014"
       style="font-style:normal;font-variant:normal;font-weight:bold;font-stretch:normal;font-size:81.36701965px;line-height:125%;font-family:'Trebuchet MS';-inkscape-font-specification:'Trebuchet MS';text-align:start;writing-mode:lr-tb;text-anchor:start;fill:#ffffff;fill-opacity:1;stroke:none;stroke-width:1px;stroke-linecap:butt;stroke-linejoin:miter;stroke-opacity:1" />
    <text
       xml:space="preserve"
       style="font-style:normal;font-variant:normal;font-weight:bold;font-stretch:normal;font-size:74.16808319px;line-height:125%;font-family:'Trebuchet MS';-inkscape-font-specification:'Trebuchet MS';text-align:start;writing-mode:lr-tb;text-anchor:start;fill:#ffffff;fill-opacity:1;stroke:none;stroke-width:1px;stroke-linecap:butt;stroke-linejoin:miter;stroke-opacity:1"
       x="83.749809"
       y="166.80547"
       id="text4371"
       sodipodi:linespacing="125%"
       transform="scale(1.1020865,0.9073698)"
       inkscape:export-filename="C:\Documents and Settings\Claverie Marc\Bureau\b-info.png"
       inkscape:export-xdpi="203.55"
       inkscape:export-ydpi="203.55"><tspan
         sodipodi:role="line"
         id="tspan4373"
         x="83.749809"
         y="166.80547"
         style="font-style:normal;font-variant:normal;font-weight:normal;font-stretch:normal;font-size:48.57026291px;font-family:'Lucida Sans Unicode';-inkscape-font-specification:'Lucida Sans Unicode';fill:#ffffff;fill-opacity:1">info</tspan></text>
    <text
       xml:space="preserve"
       style="font-style:normal;font-variant:normal;font-weight:bold;font-stretch:normal;font-size:41.96625137px;line-height:125%;font-family:'Apple LiGothic';-inkscape-font-specification:'Apple LiGothic, Bold';text-align:start;writing-mode:lr-tb;text-anchor:start;fill:#ffffff;fill-opacity:1;stroke:none;stroke-width:1px;stroke-linecap:butt;stroke-linejoin:miter;stroke-opacity:0"
       x="35.801743"
       y="190.66068"
       id="text4375"
       sodipodi:linespacing="125%"
       transform="matrix(0.98880005,0.00620692,0,1.0113268,0,0)"
       inkscape:export-filename="C:\Documents and Settings\Claverie Marc\Bureau\b-info.png"
       inkscape:export-xdpi="203.55"
       inkscape:export-ydpi="203.55"
       inkscape:transform-center-x="1.0523622"
       inkscape:transform-center-y="23.151968"><tspan
         y="190.66068"
         x="35.801743"
         id="tspan4377"
         sodipodi:role="line">service</tspan></text>
    <rect
       y="16.884811"
       x="261.02261"
       height="197.87291"
       width="192.61108"
       id="rect4379"
       style="opacity:1;fill:#1a1a1a;fill-opacity:1;stroke:#000000;stroke-width:0.27119824;stroke-linecap:square;stroke-linejoin:round;stroke-miterlimit:4;stroke-dasharray:none;stroke-opacity:1" />
    <path
       style="font-style:normal;font-variant:normal;font-weight:bold;font-stretch:normal;font-size:81.36701965px;line-height:125%;font-family:'Trebuchet MS';-inkscape-font-specification:'Trebuchet MS';text-align:start;writing-mode:lr-tb;text-anchor:start;fill:#ffffff;fill-opacity:1;stroke:none;stroke-width:1px;stroke-linecap:butt;stroke-linejoin:miter;stroke-opacity:1"
       d="m 291.9225,189.85341 0,-102.3847 15.39794,0 0,44.85364 c 6.30501,-9.78152 15.76266,-14.67226 28.3728,-14.67236 10.21307,1e-4 18.23774,3.06757 24.07402,9.20238 5.888,6.13503 8.83219,14.52232 8.83219,25.16186 0,11.5834 -3.33498,20.93599 -10.00474,28.05762 -6.61774,7.0788 -15.34582,10.61815 -26.18423,10.61815 -10.05695,0 -18.42028,-3.17468 -25.09004,-9.52413 l -1.87596,8.68754 -13.52198,0 m 15.39794,-17.43948 c 7.92035,5.83462 15.47599,8.75194 22.66699,8.75194 7.0866,0 12.55795,-2.42393 16.41405,-7.27182 3.85585,-4.89076 5.7839,-11.75504 5.78399,-20.59277 -9e-5,-16.38838 -6.56565,-24.58259 -19.69684,-24.58269 -8.59792,1e-4 -16.98732,3.83981 -25.16819,11.51914 l 0,32.17621"
       id="path4381"
       inkscape:connector-curvature="0" />
    <rect
       style="opacity:1;fill:#ba7301;fill-opacity:1;stroke:#000000;stroke-width:0.27119824;stroke-linecap:square;stroke-linejoin:round;stroke-miterlimit:4;stroke-dasharray:none;stroke-opacity:1"
       id="rect4383"
       width="192.61108"
       height="197.87291"
       x="501.02258"
       y="16.884811" />
    <path
       inkscape:connector-curvature="0"
       id="path4385"
       d="m 531.9225,189.85341 0,-102.3847 15.39794,0 0,44.85364 c 6.30501,-9.78152 15.76266,-14.67226 28.3728,-14.67236 10.21307,1e-4 18.23774,3.06757 24.07402,9.20238 5.888,6.13503 8.83219,14.52232 8.83219,25.16186 0,11.5834 -3.33498,20.93599 -10.00474,28.05762 -6.61774,7.0788 -15.34582,10.61815 -26.18423,10.61815 -10.05695,0 -18.42028,-3.17468 -25.09004,-9.52413 l -1.87596,8.68754 -13.52198,0 m 15.39794,-17.43948 c 7.92035,5.83462 15.47599,8.75194 22.66699,8.75194 7.0866,0 12.55795,-2.42393 16.41405,-7.27182 3.85585,-4.89076 5.7839,-11.75504 5.78399,-20.59277 -9e-5,-16.38838 -6.56565,-24.58259 -19.69684,-24.58269 -8.59792,1e-4 -16.98732,3.83981 -25.16819,11.51914 l 0,32.17621"
       style="font-style:normal;font-variant:normal;font-weight:bold;font-stretch:normal;font-size:81.36701965px;line-height:125%;font-family:'Trebuchet MS';-inkscape-font-specification:'Trebuchet MS';text-align:start;writing-mode:lr-tb;text-anchor:start;fill:#ffffff;fill-opacity:1;stroke:none;stroke-width:1px;stroke-linecap:butt;stroke-linejoin:miter;stroke-opacity:1" />
  </g>
</svg>
