<?xml version="1.0" encoding="UTF-8" standalone="no"?>
<!-- Created with Inkscape (http://www.inkscape.org/) -->

<svg
   xmlns:dc="http://purl.org/dc/elements/1.1/"
   xmlns:cc="http://creativecommons.org/ns#"
   xmlns:rdf="http://www.w3.org/1999/02/22-rdf-syntax-ns#"
   xmlns:svg="http://www.w3.org/2000/svg"
   xmlns="http://www.w3.org/2000/svg"
   xmlns:sodipodi="http://sodipodi.sourceforge.net/DTD/sodipodi-0.dtd"
   xmlns:inkscape="http://www.inkscape.org/namespaces/inkscape"
   width="90.073349mm"
   height="63.535851mm"
   id="svg2669"
   sodipodi:version="0.32"
   inkscape:version="0.91 r13725"
   sodipodi:docname="logo_v2.0.svg"
   inkscape:output_extension="org.inkscape.output.svg.inkscape"
   version="1.1">
  <defs
     id="defs2671">
    <filter
       inkscape:collect="always"
       id="filter5524"
       x="-0.037301935"
       width="1.0746039"
       y="-0.14092787"
       height="1.2818557">
      <feGaussianBlur
         inkscape:collect="always"
         stdDeviation="3.8059064"
         id="feGaussianBlur5526" />
    </filter>
    <inkscape:perspective
       sodipodi:type="inkscape:persp3d"
       inkscape:vp_x="0 : 526.18109 : 1"
       inkscape:vp_y="0 : 1000 : 0"
       inkscape:vp_z="744.09448 : 526.18109 : 1"
       inkscape:persp3d-origin="372.04724 : 350.78739 : 1"
       id="perspective2677" />
  </defs>
  <sodipodi:namedview
     id="base"
     pagecolor="#ffffff"
     bordercolor="#666666"
     borderopacity="1.0"
     inkscape:pageopacity="0.0"
     inkscape:pageshadow="2"
     inkscape:zoom="0.83146278"
     inkscape:cx="279.74374"
     inkscape:cy="301.85533"
     inkscape:document-units="px"
     inkscape:current-layer="layer1"
     showgrid="false"
     inkscape:window-width="1301"
     inkscape:window-height="1076"
     inkscape:window-x="240"
     inkscape:window-y="12"
     fit-margin-top="5"
     fit-margin-right="5"
     fit-margin-bottom="5"
     fit-margin-left="5"
     inkscape:window-maximized="0" />
  <metadata
     id="metadata2674">
    <rdf:RDF>
      <cc:Work
         rdf:about="">
        <dc:format>image/svg+xml</dc:format>
        <dc:type
           rdf:resource="http://purl.org/dc/dcmitype/StillImage" />
        <dc:title></dc:title>
      </cc:Work>
    </rdf:RDF>
  </metadata>
  <g
     inkscape:label="Calque 1"
     inkscape:groupmode="layer"
     id="layer1"
     transform="translate(-92.303505,-651.01738)">
    <text
       inkscape:export-ydpi="203.55"
       inkscape:export-xdpi="203.55"
       inkscape:export-filename="C:\Documents and Settings\Claverie Marc\Bureau\b-info.png"
       sodipodi:linespacing="125%"
       id="text2563"
       y="642.63489"
       x="369.28827"
       style="font-style:normal;font-variant:normal;font-weight:bold;font-stretch:normal;font-size:19.37622261px;line-height:125%;font-family:'Trebuchet MS';-inkscape-font-specification:'Trebuchet MS';text-align:start;writing-mode:lr-tb;text-anchor:start;fill:#2b1100;fill-opacity:1;stroke:none;stroke-width:1px;stroke-linecap:butt;stroke-linejoin:miter;stroke-opacity:1"
       xml:space="preserve"><tspan
         y="642.63489"
         x="369.28827"
         id="tspan2565"
         sodipodi:role="line" /></text>
    <g
       id="g3491">
      <g
         transform="matrix(2.7729613,0,0,2.7729613,-980.0123,-477.13214)"
         id="g2603">
        <path
           inkscape:export-ydpi="203.55"
           inkscape:export-xdpi="203.55"
           inkscape:export-filename="C:\Documents and Settings\Claverie Marc\Bureau\b-info.png"
           sodipodi:nodetypes="ccccccccccccccccc"
           id="path2551"
           d="m 446.5572,430.31382 c 0,0 -1.13654,-1.49754 -3.15871,-1.90196 -1.16419,-0.23286 -13.19559,-1.61037 -15.11638,-0.9518 -2.8458,0.9757 -3.80283,4.52335 -3.84161,6.0368 l 0,16.40917 c 0.49392,4.50016 3.39092,6.24556 4.55505,6.25632 -0.0549,0 14.17851,-1.73106 14.48836,-1.81102 1.70127,-0.43905 2.68912,-2.08545 2.68912,-2.08545 0,0 -1.1649,2.69593 -2.63423,3.8965 -1.26227,0.93296 -1.53666,0.7683 -2.08545,0.93296 -1.37579,0.41272 -12.72434,2.60423 -13.99445,2.68912 -4.55505,0.27439 -9.8235,-3.15432 -9.94271,-7.55853 -0.0549,-2.25007 -0.0588,-20.40371 -0.0588,-20.40371 0,-5.00598 5.78211,-7.71968 9.22213,-7.49033 1.74628,0.11642 13.2498,1.78165 14.80205,2.05329 3.69896,0.64732 4.85608,3.32495 4.85608,3.32495 l 0.21953,0.60369 z"
           style="fill:#2b1100;fill-opacity:0.15352699;fill-rule:evenodd;stroke:none;stroke-width:1px;stroke-linecap:butt;stroke-linejoin:round;stroke-opacity:1"
           inkscape:connector-curvature="0" />
        <path
           inkscape:export-ydpi="203.55"
           inkscape:export-xdpi="203.55"
           inkscape:export-filename="C:\Documents and Settings\Claverie Marc\Bureau\b-info.png"
           sodipodi:nodetypes="ccccccccccccccccc"
           id="path2553"
           d="m 465.48248,441.96016 c 0,0 -1.13653,-1.49754 -3.1587,-1.90196 -1.16419,-0.23285 -13.19559,-1.61037 -15.11639,-0.9518 -2.84579,0.97571 -3.80282,4.52336 -3.84161,6.0368 l 0,16.40918 c 0.49392,4.50016 3.39093,6.24555 4.55506,6.25631 -0.0549,0 14.1785,-1.73106 14.48835,-1.81101 1.70127,-0.43906 2.68913,-2.08546 2.68913,-2.08546 0,0 -1.1649,2.69593 -2.63424,3.8965 -1.26226,0.93296 -1.53665,0.7683 -2.08545,0.93296 -1.37578,0.41272 -12.72434,2.60424 -13.99445,2.68913 -4.55505,0.27438 -9.8235,-3.15433 -9.94271,-7.55854 -0.0549,-2.25007 -0.0588,-20.40371 -0.0588,-20.40371 0,-5.00598 5.7821,-7.71967 9.22213,-7.49032 1.74627,0.11641 13.2498,1.78165 14.80204,2.05328 3.69897,0.64733 4.85608,3.32495 4.85608,3.32495 l 0.21953,0.60369 z"
           style="fill:#2b1100;fill-opacity:0.15352699;fill-rule:evenodd;stroke:none;stroke-width:1px;stroke-linecap:butt;stroke-linejoin:round;stroke-opacity:1"
           inkscape:connector-curvature="0" />
        <path
           inkscape:export-ydpi="203.55"
           inkscape:export-xdpi="203.55"
           inkscape:export-filename="C:\Documents and Settings\Claverie Marc\Bureau\b-info.png"
           sodipodi:nodetypes="ccccccccccccccccc"
           id="path2555"
           d="m 435.63877,452.15071 c 0,0 -1.13654,-1.49755 -3.15871,-1.90197 -1.16419,-0.23285 -13.19559,-1.61037 -15.11638,-0.95179 -2.8458,0.97569 -3.80283,4.52335 -3.84161,6.03679 l 0,16.40918 c 0.49391,4.50016 3.39092,6.24556 4.55505,6.25632 -0.0549,0 14.17851,-1.73107 14.48836,-1.81103 1.70127,-0.43904 2.68912,-2.08545 2.68912,-2.08545 0,0 -1.16491,2.69593 -2.63423,3.8965 -1.26227,0.93297 -1.53666,0.76831 -2.08546,0.93297 -1.37578,0.41271 -12.72433,2.60422 -13.99445,2.68911 -4.55505,0.2744 -9.82349,-3.15432 -9.9427,-7.55852 -0.0549,-2.25007 -0.0588,-20.40371 -0.0588,-20.40371 0,-5.00598 5.78211,-7.71969 9.22213,-7.49034 1.74628,0.11642 13.2498,1.78166 14.80205,2.0533 3.69896,0.64732 4.85607,3.32495 4.85607,3.32495 l 0.21954,0.60369 z"
           style="fill:#2b1100;fill-opacity:0.15352699;fill-rule:evenodd;stroke:none;stroke-width:1px;stroke-linecap:butt;stroke-linejoin:round;stroke-opacity:1"
           inkscape:connector-curvature="0" />
      </g>
      <path
         style="fill:#2b1100;fill-opacity:1;fill-rule:evenodd;stroke:none;stroke-width:1px;stroke-linecap:butt;stroke-linejoin:round;stroke-opacity:1"
         d="m 224.68632,692.35841 c 0,0 -4.47844,-5.901 -12.44671,-7.49465 -4.58743,-0.91749 -51.99655,-6.34554 -59.5654,-3.75049 -11.21372,3.84471 -14.98475,17.82413 -15.13766,23.78777 l 3e-5,64.65947 c 1.94626,17.73272 13.36174,24.61039 17.94894,24.65281 -0.21627,0 55.86968,-6.82126 57.09067,-7.13632 6.70383,-1.73005 10.59634,-8.21759 10.59634,-8.21759 0,0 -4.59022,10.62313 -10.38008,15.35394 -4.9738,3.67628 -6.05509,3.02749 -8.21762,3.67628 -5.42116,1.62634 -50.1396,10.26185 -55.14438,10.59638 -17.94896,1.08126 -38.70907,-12.42947 -39.17884,-29.78402 -0.21623,-8.86635 -0.23157,-80.39982 -0.23157,-80.39982 0,-19.72585 22.78418,-30.41897 36.33938,-29.51529 6.88111,0.45873 52.21018,7.02053 58.32672,8.09092 14.5756,2.55073 19.13515,13.10182 19.13515,13.10182 l 0.86503,2.37879 z"
         id="path2561"
         sodipodi:nodetypes="ccccccccccccccccc"
         inkscape:export-filename="C:\Documents and Settings\Claverie Marc\Bureau\b-info.png"
         inkscape:export-xdpi="203.55"
         inkscape:export-ydpi="203.55"
         inkscape:connector-curvature="0" />
      <text
         xml:space="preserve"
         style="font-style:normal;font-variant:normal;font-weight:bold;font-stretch:normal;font-size:81.36701965px;line-height:125%;font-family:'Trebuchet MS';-inkscape-font-specification:'Trebuchet MS';text-align:start;writing-mode:lr-tb;text-anchor:start;fill:#2b1100;fill-opacity:1;stroke:none;stroke-width:1px;stroke-linecap:butt;stroke-linejoin:miter;stroke-opacity:1"
         x="206.89836"
         y="805.21448"
         id="text2557"
         sodipodi:linespacing="125%"
         transform="scale(1.1020865,0.9073698)"
         inkscape:export-filename="C:\Documents and Settings\Claverie Marc\Bureau\b-info.png"
         inkscape:export-xdpi="203.55"
         inkscape:export-ydpi="203.55"><tspan
           sodipodi:role="line"
           id="tspan2559"
           x="206.89836"
           y="805.21448"
           style="font-style:normal;font-variant:normal;font-weight:normal;font-stretch:normal;font-size:53.28461456px;font-family:'Lucida Sans Unicode';-inkscape-font-specification:'Lucida Sans Unicode';fill:#2b1100;fill-opacity:1">info</tspan></text>
      <path
         id="text2567"
         d="m 165.17391,763.61774 0,-57.35521 8.62582,0 0,25.1267 c 3.53204,-5.47953 8.83013,-8.21931 15.89428,-8.21935 5.72132,4e-5 10.21666,1.71841 13.48605,5.15512 3.29849,3.43678 4.94776,8.13527 4.9478,14.09547 -4e-5,6.48897 -1.86824,11.72821 -5.60459,15.7177 -3.70725,3.96549 -8.59666,5.94822 -14.66827,5.94822 -5.63381,0 -10.3189,-1.77845 -14.05527,-5.33537 l -1.05086,4.86672 -7.57496,0 m 8.62582,-9.76948 c 4.43695,3.26852 8.66959,4.90277 12.69791,4.90276 3.96988,10e-6 7.03489,-1.35787 9.19504,-4.07362 2.16005,-2.73977 3.24011,-6.58508 3.24015,-11.53593 -4e-5,-9.18065 -3.67805,-13.77099 -11.03404,-13.77103 -4.81648,4e-5 -9.51615,2.151 -14.09906,6.45292 l 0,18.0249"
         style="font-style:normal;font-variant:normal;font-weight:bold;font-stretch:normal;font-size:81.36701965px;line-height:125%;font-family:'Trebuchet MS';-inkscape-font-specification:'Trebuchet MS';text-align:start;writing-mode:lr-tb;text-anchor:start;fill:#2b1100;fill-opacity:1;stroke:none;stroke-width:1px;stroke-linecap:butt;stroke-linejoin:miter;stroke-opacity:1"
         inkscape:connector-curvature="0" />
      <g
         transform="matrix(0.4482151,-0.01651629,0,0.4482151,203.58747,450.42438)"
         id="g3088">
        <text
           xml:space="preserve"
           style="font-style:italic;font-variant:normal;font-weight:normal;font-stretch:normal;font-size:102.71718597px;line-height:125%;font-family:'Apple LiGothic';-inkscape-font-specification:'Apple LiGothic Italic';text-align:start;writing-mode:lr-tb;text-anchor:start;opacity:0.16000001;fill:#1a1a1a;fill-opacity:1;stroke:none;stroke-width:1px;stroke-linecap:butt;stroke-linejoin:miter;stroke-opacity:1"
           x="38.986164"
           y="715.91772"
           id="text5404"
           sodipodi:linespacing="125%"
           transform="scale(0.9888,1.0113268)"
           inkscape:export-filename="C:\Documents and Settings\Claverie Marc\Bureau\b-info.png"
           inkscape:export-xdpi="203.55"
           inkscape:export-ydpi="203.55"><tspan
             y="715.91772"
             x="38.986164"
             id="tspan5406"
             sodipodi:role="line">service</tspan></text>
        <text
           xml:space="preserve"
           style="font-style:italic;font-variant:normal;font-weight:normal;font-stretch:normal;font-size:102.71718597px;line-height:125%;font-family:'Apple LiGothic';-inkscape-font-specification:'Apple LiGothic Italic';text-align:start;writing-mode:lr-tb;text-anchor:start;opacity:0.26900006;fill:#1a1a1a;fill-opacity:1;stroke:none;stroke-width:1px;stroke-linecap:butt;stroke-linejoin:miter;stroke-opacity:1"
           x="47.076763"
           y="715.91772"
           id="text5412"
           sodipodi:linespacing="125%"
           transform="scale(0.9888,1.0113268)"
           inkscape:export-filename="C:\Documents and Settings\Claverie Marc\Bureau\b-info.png"
           inkscape:export-xdpi="203.55"
           inkscape:export-ydpi="203.55"><tspan
             y="715.91772"
             x="47.076763"
             id="tspan5414"
             sodipodi:role="line">service</tspan></text>
        <text
           xml:space="preserve"
           style="font-style:italic;font-variant:normal;font-weight:normal;font-stretch:normal;font-size:102.71718597px;line-height:125%;font-family:'Apple LiGothic';-inkscape-font-specification:'Apple LiGothic Italic';text-align:start;writing-mode:lr-tb;text-anchor:start;opacity:0.80263157;fill:#1a1a1a;fill-opacity:1;stroke:none;stroke-width:1px;stroke-linecap:butt;stroke-linejoin:miter;stroke-opacity:1;filter:url(#filter5524)"
           x="37.940212"
           y="666.74603"
           id="text5416"
           sodipodi:linespacing="125%"
           transform="matrix(0.9888,0,0,1.0113268,13.87047,49.177687)"
           inkscape:export-filename="C:\Documents and Settings\Claverie Marc\Bureau\b-info.png"
           inkscape:export-xdpi="203.55"
           inkscape:export-ydpi="203.55"><tspan
             y="666.74603"
             x="37.940212"
             id="tspan5418"
             sodipodi:role="line">service</tspan></text>
        <text
           inkscape:export-ydpi="203.55"
           inkscape:export-xdpi="203.55"
           inkscape:export-filename="C:\Documents and Settings\Claverie Marc\Bureau\b-info.png"
           transform="scale(0.9888,1.0113268)"
           sodipodi:linespacing="125%"
           id="text5388"
           y="716.16168"
           x="52.903248"
           style="font-style:italic;font-variant:normal;font-weight:normal;font-stretch:normal;font-size:102.71718597px;line-height:125%;font-family:'Apple LiGothic';-inkscape-font-specification:'Apple LiGothic Italic';text-align:start;writing-mode:lr-tb;text-anchor:start;fill:#1a1a1a;fill-opacity:1;stroke:none;stroke-width:1px;stroke-linecap:butt;stroke-linejoin:miter;stroke-opacity:1"
           xml:space="preserve"><tspan
             sodipodi:role="line"
             id="tspan5390"
             x="52.903248"
             y="716.16168">service</tspan></text>
      </g>
    </g>
  </g>
</svg>
