<?xml version="1.0" encoding="UTF-8" standalone="no"?>
<!-- Created with Inkscape (http://www.inkscape.org/) -->

<svg
   xmlns:dc="http://purl.org/dc/elements/1.1/"
   xmlns:cc="http://creativecommons.org/ns#"
   xmlns:rdf="http://www.w3.org/1999/02/22-rdf-syntax-ns#"
   xmlns:svg="http://www.w3.org/2000/svg"
   xmlns="http://www.w3.org/2000/svg"
   xmlns:sodipodi="http://sodipodi.sourceforge.net/DTD/sodipodi-0.dtd"
   xmlns:inkscape="http://www.inkscape.org/namespaces/inkscape"
   width="284.6774"
   height="197.4418"
   id="svg6361"
   sodipodi:version="0.32"
   inkscape:version="0.91 r13725"
   version="1.0"
   sodipodi:docname="logo_v2.1.3.svg"
   inkscape:output_extension="org.inkscape.output.svg.inkscape">
  <defs
     id="defs6363">
    <filter
       inkscape:collect="always"
       id="filter5364"
       x="-0.043327726"
       width="1.0866555"
       y="-0.16369349"
       height="1.327387">
      <feGaussianBlur
         inkscape:collect="always"
         stdDeviation="2.39943"
         id="feGaussianBlur5366" />
    </filter>
    <inkscape:perspective
       sodipodi:type="inkscape:persp3d"
       inkscape:vp_x="0 : 526.18109 : 1"
       inkscape:vp_y="0 : 1000 : 0"
       inkscape:vp_z="744.09448 : 526.18109 : 1"
       inkscape:persp3d-origin="372.04724 : 350.78739 : 1"
       id="perspective6369" />
  </defs>
  <sodipodi:namedview
     id="base"
     pagecolor="#ffffff"
     bordercolor="#666666"
     borderopacity="1.0"
     inkscape:pageopacity="0.0"
     inkscape:pageshadow="2"
     inkscape:zoom="2.5986009"
     inkscape:cx="104.21746"
     inkscape:cy="101.621"
     inkscape:document-units="px"
     inkscape:current-layer="layer1"
     showgrid="false"
     inkscape:window-width="1290"
     inkscape:window-height="958"
     inkscape:window-x="416"
     inkscape:window-y="39"
     fit-margin-top="0"
     fit-margin-left="0"
     fit-margin-right="0"
     fit-margin-bottom="0"
     inkscape:window-maximized="0" />
  <metadata
     id="metadata6366">
    <rdf:RDF>
      <cc:Work
         rdf:about="">
        <dc:format>image/svg+xml</dc:format>
        <dc:type
           rdf:resource="http://purl.org/dc/dcmitype/StillImage" />
        <dc:title></dc:title>
      </cc:Work>
    </rdf:RDF>
  </metadata>
  <g
     inkscape:label="Calque 1"
     inkscape:groupmode="layer"
     id="layer1"
     transform="translate(-171.22545,-195.50514)">
    <g
       id="g4187">
      <g
         transform="matrix(0.85018734,0,0,0.85018734,-347.73226,-279.50546)"
         id="g2800">
        <circle
           style="fill:#ba7301;fill-opacity:1;fill-rule:evenodd;stroke:none;stroke-width:1px;stroke-linecap:butt;stroke-linejoin:miter;stroke-opacity:1"
           id="path2793"
           transform="matrix(1.2681755,0,0,1.2084968,-219.42555,-141.72564)"
           cx="786.36584"
           cy="632.17535"
           r="44.636044" />
        <path
           style="fill:#ffffff;fill-opacity:1;stroke:none;stroke-width:0.5;stroke-linecap:round;stroke-linejoin:round;stroke-miterlimit:4;stroke-dashoffset:0;stroke-opacity:1"
           d="m 752.19995,596.35632 c 5.83373,-5.72735 17.11052,11.57231 24.79783,11.57231 7.68732,0 20.55881,-17.6089 26.45096,-11.57231 5.89215,6.03659 -11.57231,17.02781 -11.57231,24.79779 0,7.76997 17.89969,20.98466 11.57231,27.00206 -6.32738,6.0174 -18.21258,-12.67443 -25.8999,-12.67443 -7.68731,0 -19.02182,18.53731 -25.34889,12.67443 -6.32707,-5.86288 11.02125,-19.23208 11.02125,-27.00206 0,-7.76998 -16.85498,-19.07044 -11.02125,-24.79779 z"
           id="rect2797"
           sodipodi:nodetypes="cszszzzsz"
           inkscape:connector-curvature="0" />
      </g>
      <g
         transform="translate(-146.4968,-21.38384)"
         id="g2840">
        <g
           id="g2832"
           transform="translate(-8.3379591,-2.7793197)">
          <path
             sodipodi:nodetypes="ccscscsscczcczcc"
             id="path2773"
             d="m 447.9625,332.73858 c 0,-1.14836 0.5166,-2.13725 1.54981,-2.96668 1.0332,-0.85062 2.26013,-1.27595 3.6808,-1.27599 1.39481,4e-5 2.59591,0.42537 3.6033,1.27599 1.03319,0.82943 1.54979,1.81832 1.54981,2.96668 -2e-5,1.16969 -0.51662,2.16921 -1.54981,2.99857 -1.00739,0.82942 -2.20849,1.24412 -3.6033,1.24409 -1.42067,3e-5 -2.6476,-0.41467 -3.6808,-1.24409 -1.03321,-0.82936 -1.54981,-1.82888 -1.54981,-2.99857 m 1.89852,8.64482 c 0,0 0.71033,-2.56824 3.2426,-2.56824 2.54949,0 3.42157,2.56824 3.42157,2.56824 l 0,26.31727 c 0,0 -0.76431,2.58956 -3.37287,2.55989 -2.59133,-0.0295 -3.2913,-2.55989 -3.2913,-2.55989 l 0,-26.31727"
             style="font-style:normal;font-variant:normal;font-weight:normal;font-stretch:normal;font-size:72px;line-height:125%;font-family:'Tw Cen MT';-inkscape-font-specification:'Tw Cen MT';text-align:start;writing-mode:lr-tb;text-anchor:start;fill:#ba7301;fill-opacity:1;stroke:none;stroke-width:1px;stroke-linecap:butt;stroke-linejoin:miter;stroke-opacity:1"
             inkscape:connector-curvature="0" />
          <path
             sodipodi:nodetypes="cczcccsccczcccsccczc"
             id="path2775"
             d="m 461.01428,368.30523 0,-26.31726 c 0,0 0.73078,-2.0336 3.03389,-2.04572 2.31528,-0.0122 3.55279,2.04572 3.55279,2.04572 l 0,4.37026 c 1.93726,-1.76509 3.6937,-3.05172 5.26935,-3.85987 1.57564,-0.82936 3.33209,-1.24406 5.26936,-1.24409 2.89295,3e-5 5.35973,0.78689 7.40034,2.36058 2.06638,1.57375 3.09959,3.46646 3.09962,5.67815 l 0,19.01223 c 0,0 -0.82101,1.93613 -3.19607,1.92395 -2.36289,-0.0121 -3.5456,-1.92395 -3.5456,-1.92395 l 0,-17.38534 c -3e-5,-1.42483 -0.56829,-2.60512 -1.70479,-3.54087 -1.11073,-0.9357 -2.53138,-1.40357 -4.26198,-1.40359 -2.24724,2e-5 -4.1845,0.78688 -5.81178,2.36058 -1.62731,1.55247 -2.44096,3.43456 -2.44095,5.64625 l 0,14.32297 c 0,0 -0.91309,1.86306 -3.32524,1.85089 -2.39997,-0.0121 -3.33894,-1.85089 -3.33894,-1.85089"
             style="font-style:normal;font-variant:normal;font-weight:normal;font-stretch:normal;font-size:72px;line-height:125%;font-family:'Tw Cen MT';-inkscape-font-specification:'Tw Cen MT';text-align:start;writing-mode:lr-tb;text-anchor:start;fill:#ba7301;fill-opacity:1;stroke:none;stroke-width:1px;stroke-linecap:butt;stroke-linejoin:miter;stroke-opacity:1"
             inkscape:connector-curvature="0" />
          <path
             sodipodi:nodetypes="czcssccczccczccczccccsc"
             id="path2777"
             d="m 512.85755,327.56095 c 0,0 2.31668,0.7547 2.24363,2.8876 -0.0739,2.15722 -2.24363,2.72675 -2.24363,2.72675 -1.96312,-1.08456 -3.65499,-1.62685 -5.07562,-1.62689 -1.18821,4e-5 -2.11809,0.36157 -2.78966,1.08459 -0.6716,0.7231 -1.00739,1.73325 -1.00738,3.03048 l 0,6.60323 8.87266,0 c 0,0 2.56368,0.0241 2.63257,2.36061 0.0668,2.26768 -2.63257,2.71146 -2.63257,2.71146 l -8.87266,0 0,21.24521 c 0,0 -0.59289,2.38136 -3.33325,2.357 -2.76473,-0.0246 -3.40841,-2.357 -3.40841,-2.357 l 0,-21.24521 -5.88928,0 c 0,0 -1.86094,-0.7401 -1.84624,-2.5577 0.0147,-1.81764 1.84624,-2.51437 1.84624,-2.51437 l 5.88928,0 0,-6.22044 c -10e-6,-2.99854 0.92987,-5.39101 2.78965,-7.17743 1.88559,-1.78635 4.39111,-2.67954 7.51658,-2.67958 1.54978,4e-5 3.31915,0.45726 5.30809,1.37169"
             style="font-style:normal;font-variant:normal;font-weight:normal;font-stretch:normal;font-size:72px;line-height:125%;font-family:'Tw Cen MT';-inkscape-font-specification:'Tw Cen MT';text-align:start;writing-mode:lr-tb;text-anchor:start;fill:#ba7301;fill-opacity:1;stroke:none;stroke-width:1px;stroke-linecap:butt;stroke-linejoin:miter;stroke-opacity:1"
             inkscape:connector-curvature="0" />
          <g
             transform="matrix(0.2538585,0,0,0.2575427,332.71476,197.15872)"
             id="g2804">
            <circle
               transform="matrix(1.2681755,0,0,1.2084968,-219.42555,-141.72564)"
               id="path2806"
               style="fill:#ba7301;fill-opacity:1;fill-rule:evenodd;stroke:none;stroke-width:1px;stroke-linecap:butt;stroke-linejoin:miter;stroke-opacity:1"
               cx="786.36584"
               cy="632.17535"
               r="44.636044" />
            <path
               sodipodi:nodetypes="cszszzzsz"
               id="path2808"
               d="m 752.19995,596.35632 c 5.83373,-5.72735 17.11052,11.57231 24.79783,11.57231 7.68732,0 20.55881,-17.6089 26.45096,-11.57231 5.89215,6.03659 -11.57231,17.02781 -11.57231,24.79779 0,7.76997 17.89969,20.98466 11.57231,27.00206 -6.32738,6.0174 -18.21258,-12.67443 -25.8999,-12.67443 -7.68731,0 -19.02182,18.53731 -25.34889,12.67443 -6.32707,-5.86288 11.02125,-19.23208 11.02125,-27.00206 0,-7.76998 -16.85498,-19.07044 -11.02125,-24.79779 z"
               style="fill:#ffffff;fill-opacity:1;stroke:none;stroke-width:0.5;stroke-linecap:round;stroke-linejoin:round;stroke-miterlimit:4;stroke-dashoffset:0;stroke-opacity:1"
               inkscape:connector-curvature="0" />
          </g>
        </g>
        <text
           inkscape:export-ydpi="203.55"
           inkscape:export-xdpi="203.55"
           inkscape:export-filename="C:\Documents and Settings\Claverie Marc\Bureau\b-info.png"
           transform="scale(1.1020865,0.9073698)"
           sodipodi:linespacing="100%"
           id="text2810"
           y="407.677"
           x="343.211"
           style="font-style:normal;font-variant:normal;font-weight:bold;font-stretch:normal;font-size:21.46871948px;line-height:100%;font-family:'Trebuchet MS';-inkscape-font-specification:'Trebuchet MS';text-align:start;writing-mode:lr-tb;text-anchor:start;fill:#2b1100;fill-opacity:1;stroke:none;stroke-width:1px;stroke-linecap:butt;stroke-linejoin:miter;stroke-opacity:1"
           xml:space="preserve"><tspan
             style="font-style:normal;font-variant:normal;font-weight:normal;font-stretch:condensed;font-size:105.35715485px;line-height:100%;font-family:'Abadi MT Condensed Extra Bold';-inkscape-font-specification:'Abadi MT Condensed Extra Bold, Condensed';text-align:start;writing-mode:lr-tb;text-anchor:start;fill:#2b1100;fill-opacity:1"
             y="407.677"
             x="343.211"
             id="tspan2812"
             sodipodi:role="line">b</tspan></text>
      </g>
      <text
         xml:space="preserve"
         style="font-style:italic;font-variant:normal;font-weight:normal;font-stretch:normal;font-size:55.75175858px;line-height:125%;font-family:'Apple LiGothic';-inkscape-font-specification:'Apple LiGothic Italic';text-align:start;writing-mode:lr-tb;text-anchor:start;opacity:0.5;fill:#808080;fill-opacity:1;stroke:none;stroke-width:1px;stroke-linecap:butt;stroke-linejoin:miter;stroke-opacity:1;filter:url(#filter5364)"
         x="-5.2122159"
         y="738.21826"
         id="text2855"
         sodipodi:linespacing="125%"
         transform="matrix(1.2288652,0,0,0.8137589,187.33476,-214.17475)"
         inkscape:export-filename="C:\Documents and Settings\Claverie Marc\Bureau\b-info.png"
         inkscape:export-xdpi="203.55"
         inkscape:export-ydpi="203.55"><tspan
           y="738.21826"
           x="-5.2122159"
           id="tspan2857"
           sodipodi:role="line">service</tspan></text>
      <text
         inkscape:export-ydpi="203.55"
         inkscape:export-xdpi="203.55"
         inkscape:export-filename="C:\Documents and Settings\Claverie Marc\Bureau\b-info.png"
         transform="matrix(1.2288652,0,0,0.8137589,191.33476,-214.17475)"
         sodipodi:linespacing="125%"
         id="text5372"
         y="738.21826"
         x="-5.2122159"
         style="font-style:italic;font-variant:normal;font-weight:normal;font-stretch:normal;font-size:55.75175858px;line-height:125%;font-family:'Apple LiGothic';-inkscape-font-specification:'Apple LiGothic Italic';text-align:start;writing-mode:lr-tb;text-anchor:start;opacity:0.5;fill:#808080;fill-opacity:1;stroke:none;stroke-width:1px;stroke-linecap:butt;stroke-linejoin:miter;stroke-opacity:1;filter:url(#filter5364)"
         xml:space="preserve"><tspan
           sodipodi:role="line"
           id="tspan5374"
           x="-5.2122159"
           y="738.21826">service</tspan></text>
      <text
         xml:space="preserve"
         style="font-style:italic;font-variant:normal;font-weight:normal;font-stretch:normal;font-size:55.75175858px;line-height:125%;font-family:'Apple LiGothic';-inkscape-font-specification:'Apple LiGothic Italic';text-align:start;writing-mode:lr-tb;text-anchor:start;opacity:0.5;fill:#808080;fill-opacity:1;stroke:none;stroke-width:1px;stroke-linecap:butt;stroke-linejoin:miter;stroke-opacity:1;filter:url(#filter5364)"
         x="-5.2122159"
         y="738.21826"
         id="text5376"
         sodipodi:linespacing="125%"
         transform="matrix(1.2288652,0,0,0.8137589,197.33476,-214.17475)"
         inkscape:export-filename="C:\Documents and Settings\Claverie Marc\Bureau\b-info.png"
         inkscape:export-xdpi="203.55"
         inkscape:export-ydpi="203.55"><tspan
           y="738.21826"
           x="-5.2122159"
           id="tspan5378"
           sodipodi:role="line">service</tspan></text>
      <text
         inkscape:export-ydpi="203.55"
         inkscape:export-xdpi="203.55"
         inkscape:export-filename="C:\Documents and Settings\Claverie Marc\Bureau\b-info.png"
         transform="matrix(1.2288652,0,0,0.8137589,203.33476,-214.17475)"
         sodipodi:linespacing="125%"
         id="text5380"
         y="738.21826"
         x="-5.2122159"
         style="font-style:italic;font-variant:normal;font-weight:normal;font-stretch:normal;font-size:55.75175858px;line-height:125%;font-family:'Apple LiGothic';-inkscape-font-specification:'Apple LiGothic Italic';text-align:start;writing-mode:lr-tb;text-anchor:start;opacity:0.5;fill:#808080;fill-opacity:1;stroke:none;stroke-width:1px;stroke-linecap:butt;stroke-linejoin:miter;stroke-opacity:1;filter:url(#filter5364)"
         xml:space="preserve"><tspan
           sodipodi:role="line"
           id="tspan5382"
           x="-5.2122159"
           y="738.21826">service</tspan></text>
      <text
         xml:space="preserve"
         style="font-style:italic;font-variant:normal;font-weight:normal;font-stretch:normal;font-size:55.75175858px;line-height:125%;font-family:'Apple LiGothic';-inkscape-font-specification:'Apple LiGothic Italic';text-align:start;writing-mode:lr-tb;text-anchor:start;opacity:0.5;fill:#808080;fill-opacity:1;stroke:none;stroke-width:1px;stroke-linecap:butt;stroke-linejoin:miter;stroke-opacity:1;filter:url(#filter5364)"
         x="-5.2122159"
         y="738.21826"
         id="text5384"
         sodipodi:linespacing="125%"
         transform="matrix(1.2288652,0,0,0.8137589,209.33476,-214.17475)"
         inkscape:export-filename="C:\Documents and Settings\Claverie Marc\Bureau\b-info.png"
         inkscape:export-xdpi="203.55"
         inkscape:export-ydpi="203.55"><tspan
           y="738.21826"
           x="-5.2122159"
           id="tspan5386"
           sodipodi:role="line">service</tspan></text>
      <text
         inkscape:export-ydpi="203.55"
         inkscape:export-xdpi="203.55"
         inkscape:export-filename="C:\Documents and Settings\Claverie Marc\Bureau\b-info.png"
         transform="scale(1.2288652,0.8137589)"
         sodipodi:linespacing="125%"
         id="text2851"
         y="475.02621"
         x="165.1357"
         style="font-style:italic;font-variant:normal;font-weight:normal;font-stretch:normal;font-size:55.75175858px;line-height:125%;font-family:'Apple LiGothic';-inkscape-font-specification:'Apple LiGothic Italic';text-align:start;writing-mode:lr-tb;text-anchor:start;fill:#1a1a1a;fill-opacity:1;stroke:none;stroke-width:1px;stroke-linecap:butt;stroke-linejoin:miter;stroke-opacity:1"
         xml:space="preserve"><tspan
           sodipodi:role="line"
           id="tspan2853"
           x="165.1357"
           y="475.02621">service</tspan></text>
    </g>
  </g>
</svg>
