<?xml version="1.0" encoding="UTF-8" standalone="no"?>
<!-- Created with Inkscape (http://www.inkscape.org/) -->

<svg
   xmlns:dc="http://purl.org/dc/elements/1.1/"
   xmlns:cc="http://creativecommons.org/ns#"
   xmlns:rdf="http://www.w3.org/1999/02/22-rdf-syntax-ns#"
   xmlns:svg="http://www.w3.org/2000/svg"
   xmlns="http://www.w3.org/2000/svg"
   xmlns:sodipodi="http://sodipodi.sourceforge.net/DTD/sodipodi-0.dtd"
   xmlns:inkscape="http://www.inkscape.org/namespaces/inkscape"
   width="231.4375"
   height="225.09364"
   id="svg6563"
   sodipodi:version="0.32"
   inkscape:version="0.91 r13725"
   version="1.0"
   sodipodi:docname="logo_v2.1.5.svg"
   inkscape:output_extension="org.inkscape.output.svg.inkscape">
  <defs
     id="defs6565">
    <inkscape:perspective
       sodipodi:type="inkscape:persp3d"
       inkscape:vp_x="0 : 526.18109 : 1"
       inkscape:vp_y="0 : 1000 : 0"
       inkscape:vp_z="744.09448 : 526.18109 : 1"
       inkscape:persp3d-origin="372.04724 : 350.78739 : 1"
       id="perspective6571" />
  </defs>
  <sodipodi:namedview
     id="base"
     pagecolor="#ffffff"
     bordercolor="#666666"
     borderopacity="1.0"
     inkscape:pageopacity="0.0"
     inkscape:pageshadow="2"
     inkscape:zoom="2.4047093"
     inkscape:cx="115.71875"
     inkscape:cy="105.19467"
     inkscape:document-units="px"
     inkscape:current-layer="layer1"
     showgrid="false"
     inkscape:window-width="945"
     inkscape:window-height="889"
     inkscape:window-x="742"
     inkscape:window-y="34"
     fit-margin-top="9"
     fit-margin-right="9"
     fit-margin-bottom="9"
     fit-margin-left="9"
     inkscape:window-maximized="0" />
  <metadata
     id="metadata6568">
    <rdf:RDF>
      <cc:Work
         rdf:about="">
        <dc:format>image/svg+xml</dc:format>
        <dc:type
           rdf:resource="http://purl.org/dc/dcmitype/StillImage" />
        <dc:title></dc:title>
      </cc:Work>
    </rdf:RDF>
  </metadata>
  <g
     inkscape:label="Calque 1"
     inkscape:groupmode="layer"
     id="layer1"
     transform="translate(-101.42411,-36.958221)">
    <path
       style="opacity:1;fill:#800000;fill-opacity:1;stroke:none;stroke-width:0.5;stroke-linecap:round;stroke-linejoin:round;stroke-miterlimit:4;stroke-dasharray:none;stroke-dashoffset:0;stroke-opacity:1"
       d="m 110.42411,45.958221 0,207.093639 211.94326,-15.6895 1.49424,-175.341039 -213.4375,-16.0631 z m 66.03125,35.9375 17.75,2.24136 0,49.508679 c 7.27533,-11.2868 18.19921,-14.9374 32.75,-14.9375 11.7848,0 21.04693,3.546 27.78125,10.625 6.79425,7.0791 12.18742,14.7543 12.1875,27.0312 -9e-5,13.366 -5.86634,20.1574 -13.5625,28.375 -7.63622,8.1682 -17.68116,12.25 -30.1875,12.25 -11.60457,0 -21.27254,0.3266 -28.96875,-7 l -0.66201,8.1635 -17.08799,1.8678 0,-118.125039 z m 46.78125,49.593739 c -9.92102,1e-4 -19.59133,2.4201 -29.03125,11.2813 l 0,37.125 c 9.13927,6.7325 17.85869,6.0937 26.15625,6.0937 8.1772,0 14.48801,-2.7811 18.9375,-8.375 4.44928,-5.6434 8.68742,-9.5522 8.6875,-19.75 -7e-5,-18.9103 -9.59808,-26.3749 -24.75,-26.375 z"
       id="rect3189"
       sodipodi:nodetypes="ccccccccscscscccccccscsc"
       inkscape:export-filename="/Users/brunoboissonnet/Documents/binfoservice/logo/logo_v2.1.5.png"
       inkscape:export-xdpi="80.800003"
       inkscape:export-ydpi="80.800003"
       inkscape:connector-curvature="0" />
  </g>
</svg>
