<?xml version="1.0" encoding="UTF-8" standalone="no"?>
<!-- Created with Inkscape (http://www.inkscape.org/) -->

<svg
   xmlns:dc="http://purl.org/dc/elements/1.1/"
   xmlns:cc="http://creativecommons.org/ns#"
   xmlns:rdf="http://www.w3.org/1999/02/22-rdf-syntax-ns#"
   xmlns:svg="http://www.w3.org/2000/svg"
   xmlns="http://www.w3.org/2000/svg"
   xmlns:xlink="http://www.w3.org/1999/xlink"
   xmlns:sodipodi="http://sodipodi.sourceforge.net/DTD/sodipodi-0.dtd"
   xmlns:inkscape="http://www.inkscape.org/namespaces/inkscape"
   width="390.95862"
   height="275.35745"
   id="svg2"
   sodipodi:version="0.32"
   inkscape:version="0.91 r13725"
   sodipodi:docname="logo_v1.2.svg"
   inkscape:output_extension="org.inkscape.output.svg.inkscape"
   version="1.0">
  <defs
     id="defs4">
    <linearGradient
       id="linearGradient3245">
      <stop
         style="stop-color:#000000;stop-opacity:1;"
         offset="0"
         id="stop3247" />
      <stop
         style="stop-color:#515151;stop-opacity:1;"
         offset="1"
         id="stop3249" />
    </linearGradient>
    <linearGradient
       id="linearGradient3237">
      <stop
         style="stop-color:#000000;stop-opacity:1;"
         offset="0"
         id="stop3239" />
      <stop
         style="stop-color:#000000;stop-opacity:0.50406504;"
         offset="1"
         id="stop3241" />
    </linearGradient>
    <inkscape:perspective
       sodipodi:type="inkscape:persp3d"
       inkscape:vp_x="0 : 526.18109 : 1"
       inkscape:vp_y="0 : 1000 : 0"
       inkscape:vp_z="744.09448 : 526.18109 : 1"
       inkscape:persp3d-origin="372.04724 : 350.78739 : 1"
       id="perspective10" />
    <inkscape:perspective
       id="perspective2447"
       inkscape:persp3d-origin="372.04724 : 350.78739 : 1"
       inkscape:vp_z="744.09448 : 526.18109 : 1"
       inkscape:vp_y="0 : 1000 : 0"
       inkscape:vp_x="0 : 526.18109 : 1"
       sodipodi:type="inkscape:persp3d" />
    <linearGradient
       inkscape:collect="always"
       xlink:href="#linearGradient3245"
       id="linearGradient2425"
       gradientUnits="userSpaceOnUse"
       x1="278.62735"
       y1="372.56906"
       x2="240.92711"
       y2="372.56906" />
  </defs>
  <sodipodi:namedview
     id="base"
     pagecolor="#ffffff"
     bordercolor="#666666"
     borderopacity="1.0"
     inkscape:pageopacity="0.0"
     inkscape:pageshadow="2"
     inkscape:zoom="1.0678241"
     inkscape:cx="49.868348"
     inkscape:cy="167.95808"
     inkscape:document-units="px"
     inkscape:current-layer="layer1"
     showgrid="false"
     showguides="true"
     inkscape:guide-bbox="true"
     inkscape:window-width="1440"
     inkscape:window-height="874"
     inkscape:window-x="20"
     inkscape:window-y="20"
     fit-margin-top="0"
     fit-margin-left="0"
     fit-margin-right="0"
     fit-margin-bottom="0"
     inkscape:window-maximized="0" />
  <metadata
     id="metadata7">
    <rdf:RDF>
      <cc:Work
         rdf:about="">
        <dc:format>image/svg+xml</dc:format>
        <dc:type
           rdf:resource="http://purl.org/dc/dcmitype/StillImage" />
        <dc:title></dc:title>
      </cc:Work>
    </rdf:RDF>
  </metadata>
  <g
     inkscape:label="Calque 1"
     inkscape:groupmode="layer"
     id="layer1"
     transform="translate(-218.60621,-159.82314)">
    <g
       id="g2397"
       transform="matrix(2.8707457,0,0,2.8707457,-411.17045,-802.7957)">
      <path
         inkscape:connector-curvature="0"
         inkscape:export-ydpi="203.55"
         inkscape:export-xdpi="203.55"
         inkscape:export-filename="C:\Documents and Settings\Claverie Marc\Bureau\b-info.png"
         sodipodi:nodetypes="ccccccccccccccccc"
         id="path3283"
         d="m 293.3205,364.09317 c 0,0 -1.30121,-1.71452 -3.61638,-2.17754 -1.33287,-0.26659 -15.10753,-1.8437 -17.30663,-1.08971 -3.25813,1.11708 -4.35383,5.17876 -4.39823,6.91149 l 0,18.78674 c 0.56548,5.1522 3.88224,7.15049 5.21504,7.16281 -0.0628,0 16.23287,-1.98188 16.58762,-2.07342 1.94777,-0.50267 3.07875,-2.38762 3.07875,-2.38762 0,0 -1.33369,3.08655 -3.01591,4.46107 -1.44516,1.06814 -1.75931,0.87962 -2.38762,1.06814 -1.57513,0.47252 -14.568,2.98157 -16.02214,3.07876 -5.21504,0.31414 -11.24685,-3.61136 -11.38333,-8.65371 -0.0628,-2.57609 -0.0673,-23.36005 -0.0673,-23.36005 0,-5.73131 6.6199,-8.8382 10.55835,-8.57562 1.9993,0.13328 15.1696,2.0398 16.94676,2.35079 4.23491,0.74112 5.55968,3.80671 5.55968,3.80671 l 0.25134,0.69116 z"
         style="fill:#000000;fill-opacity:0.15352699;fill-rule:evenodd;stroke:none;stroke-width:1px;stroke-linecap:butt;stroke-linejoin:round;stroke-opacity:1" />
      <path
         inkscape:connector-curvature="0"
         inkscape:export-ydpi="203.55"
         inkscape:export-xdpi="203.55"
         inkscape:export-filename="C:\Documents and Settings\Claverie Marc\Bureau\b-info.png"
         sodipodi:nodetypes="ccccccccccccccccc"
         id="path3285"
         d="m 314.98791,377.42698 c 0,0 -1.3012,-1.71452 -3.61637,-2.17754 -1.33287,-0.26659 -15.10753,-1.8437 -17.30664,-1.08971 -3.25812,1.11708 -4.35382,5.17876 -4.39823,6.91149 l 0,18.78674 c 0.56548,5.1522 3.88225,7.15049 5.21505,7.16281 -0.0628,0 16.23286,-1.98188 16.58761,-2.07342 1.94777,-0.50267 3.07876,-2.38762 3.07876,-2.38762 0,0 -1.33369,3.08655 -3.01592,4.46107 -1.44515,1.06814 -1.7593,0.87962 -2.38762,1.06814 -1.57512,0.47252 -14.568,2.98157 -16.02214,3.07876 -5.21504,0.31414 -11.24685,-3.61136 -11.38333,-8.65371 -0.0628,-2.57609 -0.0673,-23.36005 -0.0673,-23.36005 0,-5.73131 6.61989,-8.8382 10.55835,-8.57562 1.99929,0.13328 15.1696,2.0398 16.94675,2.35079 4.23492,0.74112 5.55969,3.80671 5.55969,3.80671 l 0.25133,0.69116 z"
         style="fill:#000000;fill-opacity:0.15352699;fill-rule:evenodd;stroke:none;stroke-width:1px;stroke-linecap:butt;stroke-linejoin:round;stroke-opacity:1" />
      <path
         inkscape:connector-curvature="0"
         inkscape:export-ydpi="203.55"
         inkscape:export-xdpi="203.55"
         inkscape:export-filename="C:\Documents and Settings\Claverie Marc\Bureau\b-info.png"
         sodipodi:nodetypes="ccccccccccccccccc"
         id="path3287"
         d="m 280.82007,389.09406 c 0,0 -1.30121,-1.71453 -3.61638,-2.17755 -1.33287,-0.26659 -15.10753,-1.8437 -17.30663,-1.0897 -3.25813,1.11707 -4.35383,5.17876 -4.39823,6.91148 l 0,18.78675 c 0.56548,5.1522 3.88224,7.15049 5.21504,7.16281 -0.0628,0 16.23287,-1.98189 16.58762,-2.07343 1.94777,-0.50266 3.07875,-2.38762 3.07875,-2.38762 0,0 -1.33369,3.08655 -3.01591,4.46107 -1.44516,1.06815 -1.75931,0.87963 -2.38763,1.06815 -1.57512,0.47251 -14.56799,2.98156 -16.02213,3.07875 -5.21505,0.31415 -11.24685,-3.61136 -11.38333,-8.6537 -0.0628,-2.57609 -0.0673,-23.36005 -0.0673,-23.36005 0,-5.73131 6.6199,-8.83821 10.55835,-8.57563 1.9993,0.13328 15.1696,2.0398 16.94676,2.3508 4.23491,0.74112 5.55968,3.80671 5.55968,3.80671 l 0.25134,0.69116 z"
         style="fill:#000000;fill-opacity:0.15352699;fill-rule:evenodd;stroke:none;stroke-width:1px;stroke-linecap:butt;stroke-linejoin:round;stroke-opacity:1" />
      <text
         inkscape:export-ydpi="203.55"
         inkscape:export-xdpi="203.55"
         inkscape:export-filename="C:\Documents and Settings\Claverie Marc\Bureau\b-info.png"
         transform="scale(1.1020865,0.9073698)"
         sodipodi:linespacing="125%"
         id="text3233"
         y="417.62558"
         x="251.67903"
         style="font-style:normal;font-variant:normal;font-weight:bold;font-stretch:normal;font-size:33.59458542px;line-height:125%;font-family:'Trebuchet MS';-inkscape-font-specification:'Trebuchet MS';text-align:start;writing-mode:lr-tb;text-anchor:start;fill:#2e2e2e;fill-opacity:1;stroke:none;stroke-width:1px;stroke-linecap:butt;stroke-linejoin:miter;stroke-opacity:1"
         xml:space="preserve"><tspan
           style="font-style:normal;font-variant:normal;font-weight:normal;font-stretch:normal;font-size:22px;font-family:'Lucida Sans Unicode';-inkscape-font-specification:'Lucida Sans Unicode';fill:#2e2e2e;fill-opacity:1"
           y="417.62558"
           x="251.67903"
           id="tspan3235"
           sodipodi:role="line">- info</tspan></text>
      <path
         inkscape:connector-curvature="0"
         inkscape:export-ydpi="203.55"
         inkscape:export-xdpi="203.55"
         inkscape:export-filename="C:\Documents and Settings\Claverie Marc\Bureau\b-info.png"
         sodipodi:nodetypes="ccccccccccccccccc"
         id="path2453"
         d="m 278.62734,353.46034 c 0,0 -1.84905,-2.43639 -5.13896,-3.09437 -1.89404,-0.37881 -21.46819,-2.61992 -24.59319,-1.54849 -4.62989,1.58739 -6.18687,7.35918 -6.25,9.82143 l 10e-6,26.69642 c 0.80357,7.32143 5.51676,10.16106 7.41071,10.17858 -0.0893,0 23.06732,-2.81634 23.57143,-2.94643 2.76786,-0.71429 4.37499,-3.39285 4.37499,-3.39285 0,0 -1.89519,4.38605 -4.2857,6.33929 -2.05357,1.51786 -2.5,1.24999 -3.39286,1.51785 -2.23828,0.67148 -20.7015,4.23689 -22.76786,4.375 -7.41072,0.44643 -15.98209,-5.13184 -16.17604,-12.29714 -0.0893,-3.66071 -0.0956,-33.19525 -0.0956,-33.19525 0,-8.14435 9.40707,-12.5593 15.00371,-12.18619 2.84105,0.1894 21.55639,2.89862 24.08177,3.34056 6.01793,1.05314 7.90046,5.40944 7.90046,5.40944 l 0.35715,0.98215 z"
         style="fill:url(#linearGradient2425);fill-opacity:1;fill-rule:evenodd;stroke:none;stroke-width:1px;stroke-linecap:butt;stroke-linejoin:round;stroke-opacity:1" />
      <text
         inkscape:export-ydpi="203.55"
         inkscape:export-xdpi="203.55"
         inkscape:export-filename="C:\Documents and Settings\Claverie Marc\Bureau\b-info.png"
         sodipodi:linespacing="125%"
         id="text3279"
         y="394.86218"
         x="363.92856"
         style="font-style:normal;font-variant:normal;font-weight:bold;font-stretch:normal;font-size:8px;line-height:125%;font-family:'Trebuchet MS';-inkscape-font-specification:'Trebuchet MS';text-align:start;writing-mode:lr-tb;text-anchor:start;fill:#000000;fill-opacity:1;stroke:none;stroke-width:1px;stroke-linecap:butt;stroke-linejoin:miter;stroke-opacity:1"
         xml:space="preserve"><tspan
           y="394.86218"
           x="363.92856"
           id="tspan3281"
           sodipodi:role="line" /></text>
      <text
         inkscape:export-ydpi="203.55"
         inkscape:export-xdpi="203.55"
         inkscape:export-filename="C:\Documents and Settings\Claverie Marc\Bureau\b-info.png"
         transform="scale(1.1020865,0.9073698)"
         sodipodi:linespacing="125%"
         id="text3291"
         y="422.03391"
         x="225.93491"
         style="font-style:normal;font-variant:normal;font-weight:bold;font-stretch:normal;font-size:33.59458542px;line-height:125%;font-family:'Trebuchet MS';-inkscape-font-specification:'Trebuchet MS';text-align:start;writing-mode:lr-tb;text-anchor:start;fill:#2e2e2e;fill-opacity:1;stroke:none;stroke-width:1px;stroke-linecap:butt;stroke-linejoin:miter;stroke-opacity:1"
         xml:space="preserve"><tspan
           style="font-style:normal;font-variant:normal;font-weight:normal;font-stretch:normal;font-family:'Lucida Sans Unicode';-inkscape-font-specification:'Lucida Sans Unicode';fill:#2e2e2e;fill-opacity:1"
           y="422.03391"
           x="225.93491"
           id="tspan3293"
           sodipodi:role="line">b</tspan></text>
    </g>
  </g>
</svg>
