<?xml version="1.0" encoding="UTF-8" standalone="no"?>
<!-- Created with Inkscape (http://www.inkscape.org/) -->

<svg
   xmlns:dc="http://purl.org/dc/elements/1.1/"
   xmlns:cc="http://creativecommons.org/ns#"
   xmlns:rdf="http://www.w3.org/1999/02/22-rdf-syntax-ns#"
   xmlns:svg="http://www.w3.org/2000/svg"
   xmlns="http://www.w3.org/2000/svg"
   xmlns:sodipodi="http://sodipodi.sourceforge.net/DTD/sodipodi-0.dtd"
   xmlns:inkscape="http://www.inkscape.org/namespaces/inkscape"
   width="96.332916mm"
   height="53.18528mm"
   id="svg2522"
   sodipodi:version="0.32"
   inkscape:version="0.91 r13725"
   sodipodi:docname="logo_v2.2.1_eco.svg"
   inkscape:output_extension="org.inkscape.output.svg.inkscape"
   version="1.1">
  <defs
     id="defs2524">
    <inkscape:perspective
       sodipodi:type="inkscape:persp3d"
       inkscape:vp_x="0 : 526.18109 : 1"
       inkscape:vp_y="0 : 1000 : 0"
       inkscape:vp_z="744.09448 : 526.18109 : 1"
       inkscape:persp3d-origin="372.04724 : 350.78739 : 1"
       id="perspective2530" />
    <inkscape:perspective
       id="perspective3399"
       inkscape:persp3d-origin="372.04724 : 350.78739 : 1"
       inkscape:vp_z="744.09448 : 526.18109 : 1"
       inkscape:vp_y="0 : 1000 : 0"
       inkscape:vp_x="0 : 526.18109 : 1"
       sodipodi:type="inkscape:persp3d" />
  </defs>
  <sodipodi:namedview
     id="base"
     pagecolor="#ffffff"
     bordercolor="#666666"
     borderopacity="1.0"
     inkscape:pageopacity="0.0"
     inkscape:pageshadow="2"
     inkscape:zoom="0.98994949"
     inkscape:cx="305.17832"
     inkscape:cy="-30.641675"
     inkscape:document-units="px"
     inkscape:current-layer="layer1"
     showgrid="false"
     inkscape:window-width="884"
     inkscape:window-height="713"
     inkscape:window-x="174"
     inkscape:window-y="179"
     inkscape:window-maximized="0"
     fit-margin-top="0"
     fit-margin-left="0"
     fit-margin-right="0"
     fit-margin-bottom="0" />
  <metadata
     id="metadata2527">
    <rdf:RDF>
      <cc:Work
         rdf:about="">
        <dc:format>image/svg+xml</dc:format>
        <dc:type
           rdf:resource="http://purl.org/dc/dcmitype/StillImage" />
        <dc:title></dc:title>
      </cc:Work>
    </rdf:RDF>
  </metadata>
  <g
     inkscape:label="Calque 1"
     inkscape:groupmode="layer"
     id="layer1"
     transform="translate(-43.61719,-38.136275)">
    <flowRoot
       inkscape:export-ydpi="89"
       inkscape:export-xdpi="89"
       inkscape:export-filename="/Users/brunoboissonnet/Documents/autoentrepreneur/site/css/images/slogan2.png"
       xml:space="preserve"
       id="flowRoot6449"
       style="font-style:italic;font-variant:normal;font-weight:normal;font-stretch:normal;font-size:19.9327755px;line-height:125%;font-family:Georgia;-inkscape-font-specification:'Georgia Italic';text-align:start;writing-mode:lr-tb;text-anchor:start;fill:#008000;fill-opacity:1;stroke:none;stroke-width:1px;stroke-linecap:butt;stroke-linejoin:miter;stroke-opacity:1"
       transform="matrix(1.1691625,0,0,1.1691625,-120.38545,116.66656)"><flowRegion
         id="flowRegion6451"><rect
           style="font-style:italic;font-variant:normal;font-weight:normal;font-stretch:normal;font-size:19.9327755px;line-height:125%;font-family:Georgia;-inkscape-font-specification:'Georgia Italic';text-align:start;writing-mode:lr-tb;text-anchor:start;fill:#008000"
           id="rect6453"
           width="281.41306"
           height="35.228901"
           x="152.56673"
           y="52.237518" /></flowRegion><flowPara
         id="flowPara6459">Votre informaticien à domicile</flowPara></flowRoot>    <g
       style="fill:#008000"
       transform="matrix(2.527624,0,0,2.527624,-942.52672,-998.88975)"
       id="g3453">
      <path
         inkscape:export-ydpi="203.55"
         inkscape:export-xdpi="203.55"
         inkscape:export-filename="C:\Documents and Settings\Claverie Marc\Bureau\b-info.png"
         sodipodi:nodetypes="ccccccccccccccccc"
         id="path3455"
         d="m 446.5572,430.31382 c 0,0 -1.13654,-1.49754 -3.15871,-1.90196 -1.16419,-0.23286 -13.19559,-1.61037 -15.11638,-0.9518 -2.8458,0.9757 -3.80283,4.52335 -3.84161,6.0368 l 0,16.40917 c 0.49392,4.50016 3.39092,6.24556 4.55505,6.25632 -0.0549,0 14.17851,-1.73106 14.48836,-1.81102 1.70127,-0.43905 2.68912,-2.08545 2.68912,-2.08545 0,0 -1.1649,2.69593 -2.63423,3.8965 -1.26227,0.93296 -1.53666,0.7683 -2.08545,0.93296 -1.37579,0.41272 -12.72434,2.60423 -13.99445,2.68912 -4.55505,0.27439 -9.8235,-3.15432 -9.94271,-7.55853 -0.0549,-2.25007 -0.0588,-20.40371 -0.0588,-20.40371 0,-5.00598 5.78211,-7.71968 9.22213,-7.49033 1.74628,0.11642 13.2498,1.78165 14.80205,2.05329 3.69896,0.64732 4.85608,3.32495 4.85608,3.32495 l 0.21953,0.60369 z"
         style="fill:#008000;fill-opacity:0.15352699;fill-rule:evenodd;stroke:none;stroke-width:1px;stroke-linecap:butt;stroke-linejoin:round;stroke-opacity:1"
         inkscape:connector-curvature="0" />
      <path
         inkscape:export-ydpi="203.55"
         inkscape:export-xdpi="203.55"
         inkscape:export-filename="C:\Documents and Settings\Claverie Marc\Bureau\b-info.png"
         sodipodi:nodetypes="ccccccccccccccccc"
         id="path3457"
         d="m 465.48248,441.96016 c 0,0 -1.13653,-1.49754 -3.1587,-1.90196 -1.16419,-0.23285 -13.19559,-1.61037 -15.11639,-0.9518 -2.84579,0.97571 -3.80282,4.52336 -3.84161,6.0368 l 0,16.40918 c 0.49392,4.50016 3.39093,6.24555 4.55506,6.25631 -0.0549,0 14.1785,-1.73106 14.48835,-1.81101 1.70127,-0.43906 2.68913,-2.08546 2.68913,-2.08546 0,0 -1.1649,2.69593 -2.63424,3.8965 -1.26226,0.93296 -1.53665,0.7683 -2.08545,0.93296 -1.37578,0.41272 -12.72434,2.60424 -13.99445,2.68913 -4.55505,0.27438 -9.8235,-3.15433 -9.94271,-7.55854 -0.0549,-2.25007 -0.0588,-20.40371 -0.0588,-20.40371 0,-5.00598 5.7821,-7.71967 9.22213,-7.49032 1.74627,0.11641 13.2498,1.78165 14.80204,2.05328 3.69897,0.64733 4.85608,3.32495 4.85608,3.32495 l 0.21953,0.60369 z"
         style="fill:#008000;fill-opacity:0.15352699;fill-rule:evenodd;stroke:none;stroke-width:1px;stroke-linecap:butt;stroke-linejoin:round;stroke-opacity:1"
         inkscape:connector-curvature="0" />
      <path
         inkscape:export-ydpi="203.55"
         inkscape:export-xdpi="203.55"
         inkscape:export-filename="C:\Documents and Settings\Claverie Marc\Bureau\b-info.png"
         sodipodi:nodetypes="ccccccccccccccccc"
         id="path3459"
         d="m 435.63877,452.15071 c 0,0 -1.13654,-1.49755 -3.15871,-1.90197 -1.16419,-0.23285 -13.19559,-1.61037 -15.11638,-0.95179 -2.8458,0.97569 -3.80283,4.52335 -3.84161,6.03679 l 0,16.40918 c 0.49391,4.50016 3.39092,6.24556 4.55505,6.25632 -0.0549,0 14.17851,-1.73107 14.48836,-1.81103 1.70127,-0.43904 2.68912,-2.08545 2.68912,-2.08545 0,0 -1.16491,2.69593 -2.63423,3.8965 -1.26227,0.93297 -1.53666,0.76831 -2.08546,0.93297 -1.37578,0.41271 -12.72433,2.60422 -13.99445,2.68911 -4.55505,0.2744 -9.82349,-3.15432 -9.9427,-7.55852 -0.0549,-2.25007 -0.0588,-20.40371 -0.0588,-20.40371 0,-5.00598 5.78211,-7.71969 9.22213,-7.49034 1.74628,0.11642 13.2498,1.78166 14.80205,2.0533 3.69896,0.64732 4.85607,3.32495 4.85607,3.32495 l 0.21954,0.60369 z"
         style="fill:#008000;fill-opacity:0.15352699;fill-rule:evenodd;stroke:none;stroke-width:1px;stroke-linecap:butt;stroke-linejoin:round;stroke-opacity:1"
         inkscape:connector-curvature="0" />
    </g>
    <text
       xml:space="preserve"
       style="font-style:normal;font-variant:normal;font-weight:bold;font-stretch:normal;font-size:74.16809082px;line-height:125%;font-family:'Trebuchet MS';-inkscape-font-specification:'Trebuchet MS';text-align:start;writing-mode:lr-tb;text-anchor:start;fill:#008000;fill-opacity:1;stroke:none;stroke-width:1px;stroke-linecap:butt;stroke-linejoin:miter;stroke-opacity:1"
       x="153.23528"
       y="117.86994"
       id="text3461"
       sodipodi:linespacing="125%"
       transform="scale(1.1020865,0.9073698)"
       inkscape:export-filename="C:\Documents and Settings\Claverie Marc\Bureau\b-info.png"
       inkscape:export-xdpi="203.55"
       inkscape:export-ydpi="203.55"><tspan
         sodipodi:role="line"
         id="tspan3463"
         x="153.23528"
         y="117.86994"
         style="font-style:normal;font-variant:normal;font-weight:normal;font-stretch:normal;font-size:48.57026291px;font-family:'Lucida Sans Unicode';-inkscape-font-specification:'Lucida Sans Unicode';fill:#008000;fill-opacity:1">info</tspan></text>
    <text
       xml:space="preserve"
       style="font-style:italic;font-variant:normal;font-weight:normal;font-stretch:normal;font-size:41.96607208px;line-height:125%;font-family:'Apple LiGothic';-inkscape-font-specification:'Apple LiGothic Italic';text-align:start;writing-mode:lr-tb;text-anchor:start;fill:#b3b3b3;fill-opacity:1;stroke:none;stroke-width:1px;stroke-linecap:butt;stroke-linejoin:miter;stroke-opacity:1"
       x="169.88235"
       y="146.25572"
       id="text3467"
       sodipodi:linespacing="125%"
       transform="matrix(0.9888,-0.03643633,0,1.0113269,0,0)"
       inkscape:export-filename="C:\Documents and Settings\Claverie Marc\Bureau\b-info.png"
       inkscape:export-xdpi="203.55"
       inkscape:export-ydpi="203.55"><tspan
         y="146.25572"
         x="169.88235"
         id="tspan3469"
         sodipodi:role="line">service</tspan></text>
    <path
       style="fill:#008000;fill-opacity:1;stroke:none;stroke-width:0.31629816;stroke-linecap:butt;stroke-linejoin:miter;stroke-miterlimit:4;stroke-dashoffset:0;stroke-opacity:1"
       d="m 82.62125,45.379999 c -16.69143,0.76718 -30.24284,14.77311 -30.36024,31.48175 l -0.48065,60.319971 c -0.1175,16.70871 14.54996,35.37308 31.24144,34.60592 l 44.77936,-7.93053 c 9.60977,-0.44167 18.1482,-5.34798 23.71146,-12.57666 2.92823,-1.63604 5.28671,-3.81322 6.96926,-6.80903 2.52375,-4.49373 3.60474,-10.60736 3.60474,-19.38572 l 0.24033,-36.12791 c 0,-14.079941 -4.92311,-23.354191 -12.25626,-27.957081 -5.38803,-4.75246 -12.90679,-9.41597 -21.38833,-10.65412 l -46.06111,-4.96659 z m 10.81433,10.81434 0.0801,0 49.9863,4.64616 0.0801,0 c 9.32404,2.54861 16.26155,11.27442 16.26155,28.117291 l -0.24028,36.12791 c 0,8.56975 -1.09702,14.28947 -3.28436,18.18412 -2.14757,3.82386 -5.4026,6.04207 -10.1735,7.61009 l -0.0801,0 -52.54971,5.92788 c -0.0247,0 -0.0554,2e-4 -0.0801,0 -4.19431,-0.0359 -8.13507,-3.10118 -11.13472,-8.4913 -3.01737,-5.42188 -4.8865,-13.06204 -4.8865,-21.54856 l 0,-40.53376 c 0,-8.486491 1.86913,-16.126701 4.8865,-21.548571 2.99965,-5.39014 6.94037,-8.4554 11.13472,-8.49126 z"
       id="path3471"
       inkscape:connector-curvature="0" />
    <path
       id="path3465"
       d="m 101.33926,132.08495 0,-52.280704 7.86265,0 0,22.903604 c 3.21954,-4.99473 8.04889,-7.49209 14.48802,-7.49214 5.21509,5e-5 9.31273,1.56638 12.29291,4.69901 3.00659,3.13273 4.50999,7.41553 4.50999,12.8484 0,5.91484 -1.70294,10.69056 -5.10872,14.32707 -3.37923,3.61465 -7.83605,5.42195 -13.37047,5.42195 -5.13537,0 -9.40595,-1.62109 -12.81173,-4.86331 l -0.95792,4.43612 -6.90473,0 m 7.86265,-8.90512 c 4.04438,2.97934 7.90251,4.469 11.57445,4.469 3.61863,0 6.41247,-1.23773 8.38152,-3.71321 1.9689,-2.49737 2.95343,-6.00248 2.95348,-10.51529 -5e-5,-8.3684 -3.35262,-12.55262 -10.05781,-12.55266 -4.39035,4e-5 -8.67423,1.96072 -12.85164,5.88203 l 0,16.43013"
       style="font-style:normal;font-variant:normal;font-weight:bold;font-stretch:normal;font-size:81.36701965px;line-height:125%;font-family:'Trebuchet MS';-inkscape-font-specification:'Trebuchet MS';text-align:start;writing-mode:lr-tb;text-anchor:start;fill:#008000;fill-opacity:1;stroke:none;stroke-width:1px;stroke-linecap:butt;stroke-linejoin:miter;stroke-opacity:1"
       inkscape:connector-curvature="0" />
  </g>
</svg>
